<svg id="Group_202" data-name="Group 202" xmlns="http://www.w3.org/2000/svg" xmlns:xlink="http://www.w3.org/1999/xlink" width="80.822" height="78.202" viewBox="0 0 80.822 78.202">
  <defs>
    <clipPath id="clip-path">
      <path id="Path_735" data-name="Path 735" d="M641.582,0,626.245,25.27a75.587,75.587,0,0,1,9.81.029Z" transform="translate(-626.245)" fill="none"/>
    </clipPath>
    <linearGradient id="linear-gradient" x1="-4.27" y1="3.091" x2="-4.263" y2="3.091" gradientUnits="objectBoundingBox">
      <stop offset="0" stop-color="#ed1c24"/>
      <stop offset="1" stop-color="#ffd400"/>
    </linearGradient>
    <clipPath id="clip-path-2">
      <path id="Path_736" data-name="Path 736" d="M108.382,44.578A156.892,156.892,0,0,1,138.5,30.121a92.987,92.987,0,0,1,24.036-4.851L177.871,0Z" transform="translate(-108.382)" fill="none"/>
    </clipPath>
    <linearGradient id="linear-gradient-2" x1="-0.163" y1="1.754" x2="-0.162" y2="1.754" gradientUnits="objectBoundingBox">
      <stop offset="0" stop-color="#f04e23"/>
      <stop offset="0.801" stop-color="#ffd400"/>
      <stop offset="1" stop-color="#fff200"/>
    </linearGradient>
    <clipPath id="clip-path-3">
      <path id="Path_737" data-name="Path 737" d="M561.7,240.417l-7.537,12.418L565.713,267l5.8-26.549q-2.53-.176-5.076-.174-2.365,0-4.734.145" transform="translate(-554.167 -240.272)" fill="none"/>
    </clipPath>
    <linearGradient id="linear-gradient-3" x1="-3.341" y1="1.986" x2="-3.335" y2="1.986" gradientUnits="objectBoundingBox">
      <stop offset="0" stop-color="#bb141a"/>
      <stop offset="1" stop-color="#ed1c24"/>
    </linearGradient>
    <clipPath id="clip-path-4">
      <path id="Path_738" data-name="Path 738" d="M41.449,246.51a156.892,156.892,0,0,0-30.115,14.457L0,268.237l57.948-14.16,7.537-12.418a92.985,92.985,0,0,0-24.036,4.851" transform="translate(0 -241.659)" fill="none"/>
    </clipPath>
    <linearGradient id="linear-gradient-4" y1="1.992" x2="0.002" y2="1.992" gradientUnits="objectBoundingBox">
      <stop offset="0" stop-color="#f04e23"/>
      <stop offset="1" stop-color="#f37021"/>
    </linearGradient>
    <clipPath id="clip-path-5">
      <rect id="Rectangle_147" data-name="Rectangle 147" width="80.822" height="78.202" fill="none"/>
    </clipPath>
  </defs>
  <g id="Group_186" data-name="Group 186" transform="translate(65.485)">
    <g id="Group_185" data-name="Group 185" clip-path="url(#clip-path)">
      <rect id="Rectangle_142" data-name="Rectangle 142" width="15.337" height="25.299" transform="translate(0 0)" fill="url(#linear-gradient)"/>
    </g>
  </g>
  <g id="Group_188" data-name="Group 188" transform="translate(11.333)">
    <g id="Group_187" data-name="Group 187" clip-path="url(#clip-path-2)">
      <rect id="Rectangle_143" data-name="Rectangle 143" width="69.489" height="44.578" transform="translate(0)" fill="url(#linear-gradient-2)"/>
    </g>
  </g>
  <g id="Group_190" data-name="Group 190" transform="translate(57.948 25.125)">
    <g id="Group_189" data-name="Group 189" clip-path="url(#clip-path-3)">
      <rect id="Rectangle_144" data-name="Rectangle 144" width="17.347" height="26.723" transform="translate(0 0)" fill="url(#linear-gradient-3)"/>
    </g>
  </g>
  <g id="Group_192" data-name="Group 192" transform="translate(0 25.27)">
    <g id="Group_191" data-name="Group 191" clip-path="url(#clip-path-4)">
      <rect id="Rectangle_145" data-name="Rectangle 145" width="65.485" height="26.578" transform="translate(0 0)" fill="url(#linear-gradient-4)"/>
    </g>
  </g>
  <g id="Group_194" data-name="Group 194">
    <g id="Mask_Group_193" data-name="Mask Group 193" clip-path="url(#clip-path-5)">
      <path id="Path_739" data-name="Path 739" d="M260.347,242.239s-.176,0-.5.027l-.275.017-.33.028c-.237.023-.511.04-.816.073l-1.011.109c-.367.042-.763.1-1.187.152l-.655.086-.692.11c-.473.078-.972.146-1.49.237-1.034.194-2.157.382-3.333.641l-.9.188c-.3.064-.609.124-.916.2l-1.882.448-.481.114c-.161.037-.323.076-.483.122l-.973.262-1.98.529-2,.593-1,.3-.5.15c-.167.052-.333.11-.5.164l-1.994.655c-.662.22-1.327.425-1.972.671l-1.928.7-.948.341-.469.169-.46.182-3.525,1.392c-.282.106-.554.227-.822.343l-.794.342-1.509.645-1.389.592c-.11.047-.22.091-.327.14l-.313.145-.6.278-2.012.926-1.759.8,1.713-.892L221.3,253.2l.59-.3.308-.158c.1-.052.213-.1.321-.152l1.372-.637,1.492-.692.788-.362c.267-.122.536-.25.817-.362l3.51-1.461.459-.189.469-.176.947-.355,1.929-.718c.646-.25,1.313-.458,1.977-.682l2-.666c.167-.054.334-.112.5-.163l.506-.148,1.011-.3,2.008-.587,1.994-.513.981-.25c.162-.043.324-.081.487-.116l.485-.108,1.9-.42c.309-.072.619-.125.924-.183l.9-.169c1.186-.239,2.32-.392,3.362-.555.522-.074,1.025-.131,1.5-.19l.7-.084.661-.061c.427-.037.826-.081,1.2-.1l1.017-.062c.307-.02.582-.023.82-.032l.331-.01.276,0c.329,0,.5,0,.5,0" transform="translate(-194.862 -216.906)" fill="#f99d1c"/>
      <path id="Path_740" data-name="Path 740" d="M14.424,538.683H8.937l-1.309,3.3H4.968l6.713-16.127,6.692,16.127H15.733Zm-.873-2.161-1.87-4.7-1.87,4.7Z" transform="translate(-4.449 -470.872)" fill="#fff"/>
      <path id="Path_741" data-name="Path 741" d="M162.43,548.037h-2.722l-3.886-5.216h-1.766v5.216h-2.411v-15.42h4.572a4.9,4.9,0,0,1,3.845,1.538,5.717,5.717,0,0,1,0,7.128,4.314,4.314,0,0,1-1.787,1.185Zm-6.214-7.378a2.837,2.837,0,0,0,2.224-.831,3.586,3.586,0,0,0,0-4.219,2.829,2.829,0,0,0-2.224-.81h-2.161v5.861Z" transform="translate(-135.787 -476.923)" fill="#fff"/>
      <path id="Path_742" data-name="Path 742" d="M289.825,548.037H287.1l-3.886-5.216H281.45v5.216h-2.411v-15.42h4.572a4.9,4.9,0,0,1,3.845,1.538,5.717,5.717,0,0,1,0,7.128,4.315,4.315,0,0,1-1.787,1.185Zm-6.214-7.378a2.837,2.837,0,0,0,2.224-.831,3.586,3.586,0,0,0,0-4.219,2.829,2.829,0,0,0-2.224-.81H281.45v5.861Z" transform="translate(-249.861 -476.923)" fill="#fff"/>
      <path id="Path_743" data-name="Path 743" d="M397.042,547.435a7.7,7.7,0,0,1-4.718-7.107,7.878,7.878,0,0,1,.6-3.013,8.126,8.126,0,0,1,1.663-2.452,7.589,7.589,0,0,1,2.452-1.642,7.7,7.7,0,0,1,2.993-.6,7.877,7.877,0,0,1,3.014.6,7.6,7.6,0,0,1,4.094,4.094,7.878,7.878,0,0,1,.6,3.013,7.7,7.7,0,0,1-.6,2.993,7.589,7.589,0,0,1-1.642,2.452,8.129,8.129,0,0,1-2.452,1.663,7.876,7.876,0,0,1-3.014.6,7.7,7.7,0,0,1-2.993-.6m-.748-10.848a5.268,5.268,0,1,0,3.741-1.559,5.268,5.268,0,0,0-3.741,1.559" transform="translate(-351.3 -476.923)" fill="#fff"/>
      <path id="Path_744" data-name="Path 744" d="M556.349,548.724l-4.073-9.29-3.824,9.29-7.066-16.106h2.66l4.344,10.163,2.556-6.4,1.247-3.18,1.351,3.138,2.743,6.443,4.052-10.163h2.639Z" transform="translate(-484.774 -476.923)" fill="#fff"/>
      <path id="Path_745" data-name="Path 745" d="M5.639,695.488h.383v.42H5.639Zm.038,1.255h.307v3.2H5.677Z" transform="translate(-5.049 -622.763)" fill="#fff"/>
      <path id="Path_746" data-name="Path 746" d="M25.019,706.843h.307v.6a1.253,1.253,0,0,1,1.154-.671,1.219,1.219,0,0,1,1.28,1.318v1.957h-.307v-1.9a.977.977,0,0,0-1.016-1.092,1.1,1.1,0,0,0-1.11,1.142v1.851h-.307Z" transform="translate(-22.403 -632.863)" fill="#fff"/>
      <path id="Path_747" data-name="Path 747" d="M63.943,701.109v-2.1h-.464v-.282h.464v-1.023h.307v1.023h1.123v.282H64.251v2.064a.561.561,0,0,0,.64.621,1.073,1.073,0,0,0,.471-.113v.288a1.176,1.176,0,0,1-.521.113.818.818,0,0,1-.9-.878" transform="translate(-56.841 -624.751)" fill="#fff"/>
      <path id="Path_748" data-name="Path 748" d="M91.8,708.449v-.012a1.577,1.577,0,0,1,1.518-1.669,1.515,1.515,0,0,1,1.468,1.675.8.8,0,0,1-.006.125H92.124a1.269,1.269,0,0,0,1.255,1.261,1.437,1.437,0,0,0,1.1-.5l.213.188a1.682,1.682,0,0,1-1.324.6,1.59,1.59,0,0,1-1.569-1.669m2.654-.157A1.186,1.186,0,0,0,93.3,707.05a1.247,1.247,0,0,0-1.18,1.242Z" transform="translate(-82.199 -632.863)" fill="#fff"/>
      <path id="Path_749" data-name="Path 749" d="M133.438,707.049h.307v.91a1.513,1.513,0,0,1,1.418-.96v.339h-.031a1.427,1.427,0,0,0-1.387,1.6v1.311h-.307Z" transform="translate(-119.485 -633.069)" fill="#fff"/>
      <path id="Path_750" data-name="Path 750" d="M161.938,706.843h.307v.6a1.253,1.253,0,0,1,1.154-.671,1.219,1.219,0,0,1,1.28,1.318v1.957h-.307v-1.9a.977.977,0,0,0-1.016-1.092,1.1,1.1,0,0,0-1.111,1.142v1.851h-.307Z" transform="translate(-145.005 -632.863)" fill="#fff"/>
      <path id="Path_751" data-name="Path 751" d="M200.7,709.329v-.013c0-.665.571-1.041,1.4-1.041a3.847,3.847,0,0,1,1.06.138v-.138a.921.921,0,0,0-1.054-.979,2.144,2.144,0,0,0-1,.257l-.113-.27a2.57,2.57,0,0,1,1.135-.276,1.383,1.383,0,0,1,1.01.351,1.215,1.215,0,0,1,.326.9v2h-.3v-.533a1.455,1.455,0,0,1-1.223.609,1.114,1.114,0,0,1-1.236-1m2.466-.27V708.7a4.236,4.236,0,0,0-1.086-.144c-.677,0-1.054.3-1.054.747v.013c0,.464.439.734.928.734a1.1,1.1,0,0,0,1.211-.985" transform="translate(-179.711 -633.078)" fill="#fff"/>
      <path id="Path_752" data-name="Path 752" d="M239.5,701.109v-2.1h-.464v-.282h.464v-1.023h.307v1.023h1.123v.282h-1.123v2.064a.562.562,0,0,0,.64.621,1.073,1.073,0,0,0,.47-.113v.288a1.175,1.175,0,0,1-.521.113.818.818,0,0,1-.9-.878" transform="translate(-214.042 -624.751)" fill="#fff"/>
      <path id="Path_753" data-name="Path 753" d="M270.417,695.488h.383v.42h-.383Zm.038,1.255h.307v3.2h-.307Z" transform="translate(-242.14 -622.763)" fill="#fff"/>
      <path id="Path_754" data-name="Path 754" d="M287.7,708.456v-.012a1.653,1.653,0,0,1,1.65-1.675,1.636,1.636,0,0,1,1.637,1.663v.012a1.653,1.653,0,0,1-1.65,1.675,1.636,1.636,0,0,1-1.637-1.663m2.955,0v-.012a1.342,1.342,0,0,0-1.318-1.386,1.32,1.32,0,0,0-1.3,1.374v.012a1.342,1.342,0,0,0,1.318,1.387,1.32,1.32,0,0,0,1.3-1.374" transform="translate(-257.613 -632.863)" fill="#fff"/>
      <path id="Path_755" data-name="Path 755" d="M332.7,706.843H333v.6a1.253,1.253,0,0,1,1.154-.671,1.219,1.219,0,0,1,1.28,1.318v1.957h-.307v-1.9a.977.977,0,0,0-1.016-1.092A1.1,1.1,0,0,0,333,708.192v1.851H332.7Z" transform="translate(-297.907 -632.863)" fill="#fff"/>
      <path id="Path_756" data-name="Path 756" d="M371.456,709.329v-.013c0-.665.571-1.041,1.4-1.041a3.847,3.847,0,0,1,1.06.138v-.138a.921.921,0,0,0-1.054-.979,2.143,2.143,0,0,0-1,.257l-.113-.27a2.57,2.57,0,0,1,1.135-.276,1.382,1.382,0,0,1,1.01.351,1.215,1.215,0,0,1,.326.9v2h-.3v-.533a1.455,1.455,0,0,1-1.223.609,1.114,1.114,0,0,1-1.236-1m2.466-.27V708.7a4.236,4.236,0,0,0-1.085-.144c-.677,0-1.054.3-1.054.747v.013c0,.464.439.734.929.734a1.1,1.1,0,0,0,1.211-.985" transform="translate(-332.614 -633.078)" fill="#fff"/>
      <rect id="Rectangle_146" data-name="Rectangle 146" width="0.307" height="4.58" transform="translate(43.221 72.6)" fill="#fff"/>
      <path id="Path_757" data-name="Path 757" d="M452.755,708.456v-.012a1.662,1.662,0,0,1,1.631-1.675,1.68,1.68,0,0,1,1.28.59l-.22.226a1.442,1.442,0,0,0-1.067-.527,1.322,1.322,0,0,0-1.292,1.374v.012a1.345,1.345,0,0,0,1.317,1.387,1.43,1.43,0,0,0,1.073-.533l.213.188a1.641,1.641,0,0,1-2.936-1.029" transform="translate(-405.412 -632.863)" fill="#fff"/>
      <path id="Path_758" data-name="Path 758" d="M490.614,708.456v-.012a1.653,1.653,0,0,1,1.65-1.675,1.636,1.636,0,0,1,1.637,1.663v.012a1.653,1.653,0,0,1-1.65,1.675,1.636,1.636,0,0,1-1.637-1.663m2.955,0v-.012a1.342,1.342,0,0,0-1.318-1.386,1.32,1.32,0,0,0-1.3,1.374v.012a1.342,1.342,0,0,0,1.317,1.387,1.32,1.32,0,0,0,1.3-1.374" transform="translate(-439.312 -632.863)" fill="#fff"/>
      <path id="Path_759" data-name="Path 759" d="M535.614,706.843h.307v.571a1.179,1.179,0,0,1,1.066-.646,1.149,1.149,0,0,1,1.079.69,1.27,1.27,0,0,1,1.154-.69,1.2,1.2,0,0,1,1.23,1.336v1.939h-.307v-1.9c0-.69-.357-1.092-.947-1.092a1.031,1.031,0,0,0-1.01,1.129v1.863h-.307v-1.92c0-.665-.364-1.073-.935-1.073a1.079,1.079,0,0,0-1.023,1.148v1.845h-.307Z" transform="translate(-479.606 -632.863)" fill="#fff"/>
      <path id="Path_760" data-name="Path 760" d="M597.174,706.843h.307v.715a1.545,1.545,0,0,1,1.318-.791,1.589,1.589,0,0,1,1.556,1.663v.012a1.6,1.6,0,0,1-1.556,1.675,1.539,1.539,0,0,1-1.318-.765v1.694h-.307Zm2.848,1.612v-.012a1.288,1.288,0,0,0-1.255-1.38,1.34,1.34,0,0,0-1.3,1.374v.012a1.336,1.336,0,0,0,1.3,1.374,1.252,1.252,0,0,0,1.255-1.368" transform="translate(-534.729 -632.863)" fill="#fff"/>
      <path id="Path_761" data-name="Path 761" d="M638.752,709.329v-.013c0-.665.571-1.041,1.4-1.041a3.849,3.849,0,0,1,1.06.138v-.138a.921.921,0,0,0-1.054-.979,2.144,2.144,0,0,0-1,.257l-.113-.27a2.571,2.571,0,0,1,1.136-.276,1.382,1.382,0,0,1,1.01.351,1.215,1.215,0,0,1,.326.9v2h-.3v-.533a1.456,1.456,0,0,1-1.224.609,1.114,1.114,0,0,1-1.236-1m2.466-.27V708.7a4.237,4.237,0,0,0-1.085-.144c-.678,0-1.054.3-1.054.747v.013c0,.464.439.734.929.734a1.1,1.1,0,0,0,1.211-.985" transform="translate(-571.959 -633.078)" fill="#fff"/>
      <path id="Path_762" data-name="Path 762" d="M680.212,706.843h.307v.6a1.253,1.253,0,0,1,1.154-.671,1.219,1.219,0,0,1,1.28,1.318v1.957h-.308v-1.9a.977.977,0,0,0-1.016-1.092,1.1,1.1,0,0,0-1.11,1.142v1.851h-.307Z" transform="translate(-609.084 -632.863)" fill="#fff"/>
      <path id="Path_763" data-name="Path 763" d="M717.446,711.572l.107-.27a1.115,1.115,0,0,0,.546.119c.333,0,.552-.194.791-.753l-1.537-3.181h.358l1.33,2.861,1.154-2.861h.339l-1.387,3.313c-.282.671-.609.91-1.066.91a1.442,1.442,0,0,1-.634-.138" transform="translate(-642.34 -633.508)" fill="#fff"/>
    </g>
  </g>
</svg>
