<svg xmlns="http://www.w3.org/2000/svg" width="299.549" height="299.548" viewBox="0 0 299.549 299.548">
  <g id="Group_880" data-name="Group 880" transform="translate(-1220 -510)">
    <g id="Group_879" data-name="Group 879" transform="translate(0 0.457)">
      <path id="Path_2908" data-name="Path 2908" d="M2.027-153.613a4.722,4.722,0,0,1,1.465-3.418,4.741,4.741,0,0,1,3.488-1.3A150.073,150.073,0,0,1,142.594-55.823,149.634,149.634,0,0,1,95.209,107.243a4.742,4.742,0,0,1-6.8-.833l-12.464-16.7a4.72,4.72,0,0,1,.769-6.457A119.422,119.422,0,0,0,113.827-46.3,119.772,119.772,0,0,0,6.509-128.073a4.73,4.73,0,0,1-4.482-4.719Z" transform="translate(1369.319 667.882)" fill="#1f78b4"/>
      <path id="Path_2909" data-name="Path 2909" d="M77.408,119.945a4.735,4.735,0,0,1-1.145,6.752A150.115,150.115,0,0,1-52.2,145.742a150.115,150.115,0,0,1-95.245-88.288,4.735,4.735,0,0,1,.105-3.723,4.735,4.735,0,0,1,2.765-2.5l19.735-6.763a4.735,4.735,0,0,1,5.926,2.707,119.808,119.808,0,0,0,75.675,69.61A119.808,119.808,0,0,0,58.524,102.1a4.736,4.736,0,0,1,6.42,1.114Z" transform="translate(1377.94 656.636)" fill="#a6cee3"/>
      <path id="Path_2910" data-name="Path 2910" d="M-146.392,38.717a4.736,4.736,0,0,1-3.714-.275,4.736,4.736,0,0,1-2.366-2.876,150.115,150.115,0,0,1,48.984-158.26,4.736,4.736,0,0,1,3.577-1.036,4.735,4.735,0,0,1,3.22,1.871l12.464,16.729A4.735,4.735,0,0,1-85-98.66,119.808,119.808,0,0,0-123.636,26.18a4.735,4.735,0,0,1-3.02,5.773Z" transform="translate(1378.507 666.053)" fill="#b2df8a"/>
      <path id="Path_2911" data-name="Path 2911" d="M-90.039-125.982a4.735,4.735,0,0,1-.871-3.621,4.735,4.735,0,0,1,2.016-3.131,150.114,150.114,0,0,1,77.209-25.6A4.736,4.736,0,0,1-8.2-157.028,4.736,4.736,0,0,1-6.733-153.6v20.862a4.735,4.735,0,0,1-4.482,4.729,119.807,119.807,0,0,0-59.94,19.874,4.735,4.735,0,0,1-6.42-1.114Z" transform="translate(1374.729 667.882)" fill="#33a02c"/>
    </g>
    <g id="Group_419" data-name="Group 419" transform="translate(1312 610)">
      <text id="Value" transform="translate(59.831 93.486)" fill="#767676" font-size="18" font-family="Roboto-Regular, Roboto"><tspan x="-22" y="0">Value</tspan></text>
      <text id="_40_" data-name="40%" transform="translate(58 53)" fill="#1f78b4" font-size="58" font-family="Arial"><tspan x="-58" y="0">40%</tspan></text>
    </g>
  </g>
</svg>
