<svg id="Test_Series" data-name="Test Series" xmlns="http://www.w3.org/2000/svg" width="20.337" height="24.404" viewBox="0 0 20.337 24.404">
  <path id="document_1_" data-name="document (1)" d="M17.253,14.236a1.017,1.017,0,0,1-1.017,1.017H8.1a1.017,1.017,0,1,1,0-2.034h8.135A1.017,1.017,0,0,1,17.253,14.236Zm-4.067,3.051H8.1a1.017,1.017,0,1,0,0,2.034h5.084a1.017,1.017,0,1,0,0-2.034Zm9.152-6.625V19.32A5.09,5.09,0,0,1,17.253,24.4H7.084A5.09,5.09,0,0,1,2,19.32V5.084A5.09,5.09,0,0,1,7.084,0h4.591a7.075,7.075,0,0,1,5.033,2.085l3.543,3.545A7.068,7.068,0,0,1,22.337,10.662ZM15.271,3.522A5.094,5.094,0,0,0,14.2,2.729V7.118a1.017,1.017,0,0,0,1.017,1.017h4.389a5.067,5.067,0,0,0-.794-1.068ZM20.3,10.662c0-.168-.033-.328-.048-.493H15.219a3.051,3.051,0,0,1-3.051-3.051V2.082c-.165-.015-.326-.048-.493-.048H7.084A3.051,3.051,0,0,0,4.034,5.084V19.32a3.051,3.051,0,0,0,3.051,3.051H17.253A3.051,3.051,0,0,0,20.3,19.32Z" transform="translate(-2 0)" fill="#d0ccf1"/>
</svg>
