<svg id="Batches" xmlns="http://www.w3.org/2000/svg" width="24.275" height="22.275" viewBox="0 0 24.275 22.275">
  <path id="graduation-cap" d="M22.3,25.155,14.84,21.6A5.286,5.286,0,0,0,9.5,21.557l-7.542,3.6c-.028.014-.058.029-.085.046a3.733,3.733,0,0,0,.085,6.529l2.081.991v4.956a5.064,5.064,0,0,0,3.559,4.833,15.734,15.734,0,0,0,4.532.619,15.736,15.736,0,0,0,4.532-.614,5.064,5.064,0,0,0,3.559-4.833V32.719l2.023-.967v8.342a1.011,1.011,0,0,0,2.023,0V27.957A3.386,3.386,0,0,0,22.3,25.155Zm-4.1,12.526a3.034,3.034,0,0,1-2.124,2.9,13.747,13.747,0,0,1-3.945.528,13.747,13.747,0,0,1-3.945-.528,3.034,3.034,0,0,1-2.124-2.9v-4l3.355,1.6a5.332,5.332,0,0,0,2.736.747,5.057,5.057,0,0,0,2.606-.7l3.44-1.644ZM21.431,29.9,13.8,33.545a3.332,3.332,0,0,1-3.429-.046l-7.463-3.55a1.711,1.711,0,0,1-.037-2.992l7.581-3.621a3.338,3.338,0,0,1,3.429.046l7.458,3.553a1.748,1.748,0,0,1,.9,1.507,1.719,1.719,0,0,1-.809,1.461Z" transform="translate(0.011 -20.854)" fill="#d0ccf1"/>
</svg>
