<svg id="headset" xmlns="http://www.w3.org/2000/svg" width="24.375" height="20.337" viewBox="0 0 24.375 20.337">
  <path id="headset-2" data-name="headset" d="M21.354,12.6V11.152a9.152,9.152,0,0,0-18.3,0V12.6a5.084,5.084,0,0,0,2.034,9.737A2.034,2.034,0,0,0,7.118,20.3V14.2a2.034,2.034,0,0,0-2.034-2.034V11.152a7.118,7.118,0,0,1,14.236,0v1.017A2.034,2.034,0,0,0,17.286,14.2v6.1H14.236a1.017,1.017,0,1,0,0,2.034H19.32A5.084,5.084,0,0,0,21.354,12.6ZM5.084,20.3h0a3.051,3.051,0,1,1,0-6.1Zm14.236,0V14.2a3.051,3.051,0,1,1,0,6.1Z" transform="translate(-0.014 -2)" fill="#d0ccf1"/>
</svg>
