<svg xmlns="http://www.w3.org/2000/svg" width="341.99" height="341.879" viewBox="0 0 341.99 341.879">
  <g id="Group_896" data-name="Group 896" transform="translate(419 -13800.12)">
    <path id="Path_3001" data-name="Path 3001" d="M1.9-198.668A4.212,4.212,0,0,1,3.183-201.7a4.212,4.212,0,0,1,3.072-1.18A170.99,170.99,0,0,1,162.36-86.526a170.99,170.99,0,0,1-54,187.055,4.212,4.212,0,0,1-6.016-.718L81.954,72.953a4.212,4.212,0,0,1,.665-5.787,128.875,128.875,0,0,0,39.825-140.26A128.875,128.875,0,0,0,5.925-160.742,4.212,4.212,0,0,1,1.9-164.95Z" transform="translate(-248.309 14003)" fill="#179ac7"/>
    <path id="Path_3002" data-name="Path 3002" d="M81.868,153.43a4.212,4.212,0,0,1-.927,5.988A170.99,170.99,0,0,1-109.84,163.69a4.212,4.212,0,0,1-1.858-2.717,4.212,4.212,0,0,1,.664-3.223l19.162-27.744a4.212,4.212,0,0,1,5.705-1.173,128.875,128.875,0,0,0,141.9-3.177,4.212,4.212,0,0,1,5.752.917Z" transform="translate(-230.384 13951.313)" fill="#7cdaea"/>
    <path id="Path_3003" data-name="Path 3003" d="M-125.969,144.592a4.212,4.212,0,0,1-2.78,1.762,4.212,4.212,0,0,1-3.2-.775,170.99,170.99,0,0,1-57.594-75.884,4.212,4.212,0,0,1,.113-3.289,4.212,4.212,0,0,1,2.445-2.2l31.876-10.992a4.212,4.212,0,0,1,5.291,2.436A128.874,128.874,0,0,0-107.73,111.1a4.212,4.212,0,0,1,.923,5.751Z" transform="translate(-218.078 13962.655)" fill="#b2df8a"/>
    <path id="Path_3004" data-name="Path 3004" d="M-190.1,43.789a4.212,4.212,0,0,1-3.283-.228,4.212,4.212,0,0,1-2.117-2.52,170.99,170.99,0,0,1-1.422-95.255,4.212,4.212,0,0,1,2.041-2.582,4.212,4.212,0,0,1,3.275-.326l32.19,10.036a4.212,4.212,0,0,1,2.818,5.1,128.874,128.874,0,0,0,1.039,69.606,4.212,4.212,0,0,1-2.665,5.179Z" transform="translate(-216 13980.047)" fill="#33a02c"/>
    <path id="Path_3005" data-name="Path 3005" d="M-188.9-76.412a4.212,4.212,0,0,1-2.509-2.129,4.212,4.212,0,0,1-.212-3.284,170.99,170.99,0,0,1,55.3-77.57,4.212,4.212,0,0,1,3.174-.871,4.212,4.212,0,0,1,2.831,1.678l19.982,27.16a4.212,4.212,0,0,1-.751,5.776,128.875,128.875,0,0,0-40.412,56.683,4.212,4.212,0,0,1-5.216,2.593Z" transform="translate(-217.757 13996.286)" fill="#aaff72"/>
    <path id="Path_3006" data-name="Path 3006" d="M-115.89-167.2a4.212,4.212,0,0,1-.759-3.2,4.212,4.212,0,0,1,1.776-2.771,170.99,170.99,0,0,1,90.514-29.709,4.212,4.212,0,0,1,3.072,1.18A4.212,4.212,0,0,1-20-198.668v33.718a4.212,4.212,0,0,1-4.028,4.208A128.874,128.874,0,0,0-90.17-139.033a4.212,4.212,0,0,1-5.738-1Z" transform="translate(-229.607 14003)" fill="#756bff"/>
    <text id="Lead_Sources" data-name="Lead
Sources" transform="translate(-250.66 13953.313)" fill="#3a3089" font-size="34" font-family="Roboto-Bold, Roboto" font-weight="700" letter-spacing="-0.013em"><tspan x="-40" y="0">LEAD</tspan><tspan x="-74" y="41">SOURCES</tspan></text>
  </g>
</svg>
