<svg id="lock" xmlns="http://www.w3.org/2000/svg" width="13.87" height="17.394" viewBox="0 0 13.87 17.394">
  <path id="Path_1535" data-name="Path 1535" d="M13.79,6.105V5.073A4.968,4.968,0,0,0,8.935,0,4.968,4.968,0,0,0,4.081,5.073V6.105A3.633,3.633,0,0,0,2,9.422V13.77a3.553,3.553,0,0,0,3.468,3.624H12.4A3.553,3.553,0,0,0,15.87,13.77V9.422A3.633,3.633,0,0,0,13.79,6.105ZM5.468,5.073A3.548,3.548,0,0,1,8.935,1.45,3.548,3.548,0,0,1,12.4,5.073V5.8H5.468Zm9.016,8.7A2.129,2.129,0,0,1,12.4,15.945H5.468A2.129,2.129,0,0,1,3.387,13.77V9.422A2.129,2.129,0,0,1,5.468,7.248H12.4a2.129,2.129,0,0,1,2.081,2.174Z" transform="translate(-2)" fill="#1e1e1e"/>
  <path id="Path_1536" data-name="Path 1536" d="M11.631,14a.631.631,0,0,0-.631.631v1.262a.631.631,0,1,0,1.262,0V14.631A.631.631,0,0,0,11.631,14Z" transform="translate(-4.696 -3.591)" fill="#1e1e1e"/>
</svg>
