<svg id="Group_324" data-name="Group 324" xmlns="http://www.w3.org/2000/svg" xmlns:xlink="http://www.w3.org/1999/xlink" width="28" height="25.667" viewBox="0 0 28 25.667">
  <defs>
    <clipPath id="clip-path">
      <rect id="Rectangle_243" data-name="Rectangle 243" width="28" height="25.667" fill="#1e1e1e"/>
    </clipPath>
  </defs>
  <g id="Group_323" data-name="Group 323" clip-path="url(#clip-path)">
    <path id="Path_2880" data-name="Path 2880" d="M22.167,0H5.833A5.84,5.84,0,0,0,0,5.832v14a5.84,5.84,0,0,0,5.833,5.833H22.167A5.84,5.84,0,0,0,28,19.832v-14A5.84,5.84,0,0,0,22.167,0M5.833,2.332H22.167a3.5,3.5,0,0,1,3.243,2.2l-8.934,8.936a3.508,3.508,0,0,1-4.951,0L2.59,4.534a3.5,3.5,0,0,1,3.243-2.2m16.333,21H5.833a3.5,3.5,0,0,1-3.5-3.5V7.582l7.541,7.537a5.841,5.841,0,0,0,8.251,0l7.541-7.537v12.25a3.5,3.5,0,0,1-3.5,3.5" transform="translate(0 0.001)" fill="#1e1e1e"/>
  </g>
</svg>
