<svg xmlns="http://www.w3.org/2000/svg" width="22.937" height="26.6" viewBox="0 0 22.937 26.6">
  <g id="Notification" transform="translate(1.1 1.1)">
    <path id="Path_425" d="M0,14.378v-.267a4.391,4.391,0,0,1,.734-2.218A5.941,5.941,0,0,0,2.19,9.07c0-.813,0-1.638.071-2.451C2.628,2.706,6.5,0,10.321,0h.095c3.823,0,7.692,2.706,8.071,6.62.071.813,0,1.638.059,2.451A6.044,6.044,0,0,0,20,11.9a4.277,4.277,0,0,1,.734,2.207v.256a4.35,4.35,0,0,1-1.03,2.915,5.5,5.5,0,0,1-3.479,1.672,54.986,54.986,0,0,1-11.728,0,5.555,5.555,0,0,1-3.479-1.672A4.4,4.4,0,0,1,0,14.378Z" transform="translate(0)" fill="none" stroke="#1e1e1e" stroke-linecap="round" stroke-linejoin="round" stroke-width="2.2"/>
    <path id="Path_421" d="M0,0A3.733,3.733,0,0,0,2.485,1.375,3.767,3.767,0,0,0,5.231.616,3.52,3.52,0,0,0,5.87,0" transform="translate(7.386 22.995)" fill="none" stroke="#1e1e1e" stroke-linecap="round" stroke-linejoin="round" stroke-width="2.2"/>
  </g>
</svg>
