<svg id="_01_align_center" data-name="01 align center" xmlns="http://www.w3.org/2000/svg" width="18.686" height="24.914" viewBox="0 0 18.686 24.914">
  <path id="Path_2878" data-name="Path 2878" d="M21.686,24.381H19.609V19.146a3.073,3.073,0,0,0-3.07-3.07H8.146a3.073,3.073,0,0,0-3.07,3.07v5.235H3V19.146A5.152,5.152,0,0,1,8.146,14H16.54a5.152,5.152,0,0,1,5.146,5.146Z" transform="translate(-3 0.533)" fill="#d0ccf1"/>
  <path id="Path_2879" data-name="Path 2879" d="M12.229,12.457a6.228,6.228,0,1,1,6.229-6.228A6.229,6.229,0,0,1,12.229,12.457Zm0-10.381a4.152,4.152,0,1,0,4.152,4.152A4.152,4.152,0,0,0,12.229,2.076Z" transform="translate(-2.886)" fill="#d0ccf1"/>
</svg>
