<svg id="sign-out-alt" xmlns="http://www.w3.org/2000/svg" width="24.145" height="24.404" viewBox="0 0 24.145 24.404">
  <path id="Path_1525" data-name="Path 1525" d="M11.669,15.253a1.017,1.017,0,0,0-1.017,1.017V19.32A3.051,3.051,0,0,1,7.6,22.371H5.084A3.051,3.051,0,0,1,2.034,19.32V5.084A3.051,3.051,0,0,1,5.084,2.034H7.6a3.051,3.051,0,0,1,3.051,3.051V8.135a1.017,1.017,0,0,0,2.034,0V5.084A5.09,5.09,0,0,0,7.6,0H5.084A5.09,5.09,0,0,0,0,5.084V19.32A5.09,5.09,0,0,0,5.084,24.4H7.6a5.09,5.09,0,0,0,5.084-5.084V16.27A1.017,1.017,0,0,0,11.669,15.253Z" fill="#fff"/>
  <path id="Path_1526" data-name="Path 1526" d="M23.168,9.961,18.5,5.3a1.017,1.017,0,1,0-1.438,1.438L21.4,11.071,6.017,11.1a1.017,1.017,0,1,0,0,2.034h0L21.461,13.1l-4.4,4.4A1.017,1.017,0,1,0,18.5,18.938l4.663-4.663A3.051,3.051,0,0,0,23.168,9.961Z" transform="translate(0.084 0.084)" fill="#fff"/>
</svg>
