<svg id="Group_320" data-name="Group 320" xmlns="http://www.w3.org/2000/svg" xmlns:xlink="http://www.w3.org/1999/xlink" width="537.291" height="433.547" viewBox="0 0 537.291 433.547">
  <defs>
    <clipPath id="clip-path">
      <rect id="Rectangle_237" data-name="Rectangle 237" width="537.291" height="433.547" fill="none"/>
    </clipPath>
    <clipPath id="clip-path-5">
      <rect id="Rectangle_215" data-name="Rectangle 215" width="9.827" height="6.473" fill="none"/>
    </clipPath>
    <clipPath id="clip-path-6">
      <rect id="Rectangle_216" data-name="Rectangle 216" width="33.425" height="16.503" fill="none"/>
    </clipPath>
    <clipPath id="clip-path-7">
      <rect id="Rectangle_217" data-name="Rectangle 217" width="7.907" height="6.478" fill="none"/>
    </clipPath>
    <clipPath id="clip-path-8">
      <rect id="Rectangle_218" data-name="Rectangle 218" width="36.89" height="3.621" fill="none"/>
    </clipPath>
    <clipPath id="clip-path-9">
      <rect id="Rectangle_219" data-name="Rectangle 219" width="9.179" height="40.676" fill="none"/>
    </clipPath>
    <clipPath id="clip-path-11">
      <rect id="Rectangle_221" data-name="Rectangle 221" width="8.134" height="6.549" fill="none"/>
    </clipPath>
    <clipPath id="clip-path-12">
      <rect id="Rectangle_222" data-name="Rectangle 222" width="37.939" height="3.779" fill="none"/>
    </clipPath>
    <clipPath id="clip-path-13">
      <rect id="Rectangle_223" data-name="Rectangle 223" width="8.135" height="6.549" fill="none"/>
    </clipPath>
    <clipPath id="clip-path-16">
      <rect id="Rectangle_228" data-name="Rectangle 228" width="8.194" height="11.119" fill="none"/>
    </clipPath>
    <clipPath id="clip-path-17">
      <rect id="Rectangle_229" data-name="Rectangle 229" width="33.911" height="25.683" fill="none"/>
    </clipPath>
    <clipPath id="clip-path-18">
      <rect id="Rectangle_230" data-name="Rectangle 230" width="21.385" height="15.992" fill="none"/>
    </clipPath>
    <clipPath id="clip-path-19">
      <rect id="Rectangle_231" data-name="Rectangle 231" width="10.061" height="7.044" fill="none"/>
    </clipPath>
    <clipPath id="clip-path-20">
      <rect id="Rectangle_232" data-name="Rectangle 232" width="40.418" height="9.783" fill="none"/>
    </clipPath>
    <clipPath id="clip-path-21">
      <rect id="Rectangle_233" data-name="Rectangle 233" width="24.417" height="6.63" fill="none"/>
    </clipPath>
  </defs>
  <g id="Group_319" data-name="Group 319" clip-path="url(#clip-path)">
    <g id="Group_263" data-name="Group 263">
      <g id="Group_262" data-name="Group 262" clip-path="url(#clip-path)">
        <path id="Path_2614" data-name="Path 2614" d="M349.458,34.463A36.877,36.877,0,1,1,383.84,73.677a36.877,36.877,0,0,1-34.382-39.214" transform="translate(78.779 0)" fill="#e0e0e0"/>
        <path id="Path_2615" data-name="Path 2615" d="M396.311,35.018a5.569,5.569,0,0,1-1.3.115l-3.585.1c-3.042.056-7.278.094-12.062.1h-.316v-.317c0-.766,0-1.572,0-2.391,0-5.343.036-10.179.093-13.679.04-1.647.075-3.034.1-4.145a7.007,7.007,0,0,1,.124-1.52,6.949,6.949,0,0,1,.125,1.52c.027,1.11.06,2.5.1,4.145.059,3.5.094,8.336.094,13.679,0,.819,0,1.625,0,2.391l-.317-.316c4.784.01,9.021.048,12.062.1l3.585.1a5.57,5.57,0,0,1,1.3.115" transform="translate(85.469 2.995)" fill="#fafafa"/>
        <path id="Path_2616" data-name="Path 2616" d="M379.455,4.944c.175,0,.319,1.387.319,3.1s-.143,3.1-.319,3.1-.32-1.387-.32-3.1.142-3.1.32-3.1" transform="translate(85.489 1.115)" fill="#fafafa"/>
        <path id="Path_2617" data-name="Path 2617" d="M393.9,9.006c.125.125-.741,1.192-1.934,2.385s-2.26,2.058-2.385,1.934.741-1.192,1.934-2.385,2.26-2.059,2.385-1.934" transform="translate(87.843 2.028)" fill="#fafafa"/>
        <path id="Path_2618" data-name="Path 2618" d="M402.085,17.767c.08.161-1.071.895-2.5,1.765s-2.613,1.551-2.718,1.406.93-1.067,2.386-1.951,2.754-1.375,2.831-1.219" transform="translate(89.486 4)" fill="#fafafa"/>
        <path id="Path_2619" data-name="Path 2619" d="M407.377,30.817c0,.176-1.891.319-4.224.319s-4.224-.142-4.224-.319,1.891-.319,4.224-.319,4.224.142,4.224.319" transform="translate(89.952 6.877)" fill="#fafafa"/>
        <path id="Path_2620" data-name="Path 2620" d="M359.492,30.357c0,.176-1.787.319-3.989.319s-3.99-.142-3.99-.319,1.786-.319,3.99-.319,3.989.142,3.989.319" transform="translate(79.261 6.773)" fill="#fafafa"/>
        <path id="Path_2621" data-name="Path 2621" d="M362.57,39.976c.115.132-1.212,1.386-2.964,2.8s-3.259,2.441-3.364,2.3,1.222-1.395,2.964-2.8,3.249-2.433,3.364-2.3" transform="translate(80.326 9.011)" fill="#fafafa"/>
        <path id="Path_2622" data-name="Path 2622" d="M370.526,47.458c.146.107-.825,1.664-1.983,3.6s-2.083,3.518-2.246,3.44.518-1.809,1.7-3.768,2.392-3.373,2.529-3.27" transform="translate(82.59 10.7)" fill="#fafafa"/>
        <path id="Path_2623" data-name="Path 2623" d="M379.455,58.662c-.176,0-.319-1.891-.319-4.224s.142-4.224.319-4.224.319,1.891.319,4.224-.142,4.224-.319,4.224" transform="translate(85.49 11.323)" fill="#fafafa"/>
        <path id="Path_2624" data-name="Path 2624" d="M395.419,53.53c-.091.143-1.768-.779-3.536-2.325s-2.915-3.076-2.787-3.186,1.471,1.2,3.206,2.7,3.217,2.654,3.116,2.806" transform="translate(87.733 10.826)" fill="#fafafa"/>
        <path id="Path_2625" data-name="Path 2625" d="M402.2,45.974c-.125.125-1.4-.951-2.854-2.4s-2.527-2.729-2.4-2.854,1.4.951,2.854,2.4,2.528,2.729,2.4,2.854" transform="translate(89.501 9.179)" fill="#fafafa"/>
        <path id="Path_2626" data-name="Path 2626" d="M361.936,21.878c-.125.125-1.255-.8-2.526-2.075s-2.2-2.4-2.074-2.524,1.255.8,2.526,2.074,2.2,2.4,2.074,2.526" transform="translate(80.572 3.894)" fill="#fafafa"/>
        <path id="Path_2627" data-name="Path 2627" d="M370.527,12.793c-.125.125-1.237-.781-2.483-2.022s-2.158-2.348-2.033-2.473,1.235.779,2.483,2.021,2.157,2.349,2.033,2.474" transform="translate(82.527 1.868)" fill="#fafafa"/>
        <rect id="Rectangle_199" data-name="Rectangle 199" width="146.544" height="263.256" transform="translate(11.593 20.042)" fill="#ebebeb"/>
        <rect id="Rectangle_200" data-name="Rectangle 200" width="133.323" height="247.78" transform="translate(17.448 27.676)" fill="#fafafa"/>
        <path id="Path_2628" data-name="Path 2628" d="M147.561,25.5,14.238,195.095V22.583H147.561Z" transform="translate(3.211 5.092)" fill="#f5f5f5"/>
        <rect id="Rectangle_201" data-name="Rectangle 201" width="136.218" height="2.638" transform="translate(17.45 98.954)" fill="#ebebeb"/>
        <rect id="Rectangle_202" data-name="Rectangle 202" width="136.218" height="2.638" transform="translate(17.45 157.96)" fill="#ebebeb"/>
        <rect id="Rectangle_203" data-name="Rectangle 203" width="136.218" height="2.638" transform="translate(17.45 216.967)" fill="#ebebeb"/>
        <rect id="Rectangle_204" data-name="Rectangle 204" width="6.736" height="182.208" transform="translate(80.742 100.273)" fill="#ebebeb"/>
        <rect id="Rectangle_205" data-name="Rectangle 205" width="3.051" height="72.598" transform="translate(43.121 27.676)" fill="#ebebeb"/>
        <rect id="Rectangle_206" data-name="Rectangle 206" width="3.051" height="72.598" transform="translate(69.44 27.676)" fill="#ebebeb"/>
        <rect id="Rectangle_207" data-name="Rectangle 207" width="3.051" height="72.598" transform="translate(95.759 27.676)" fill="#ebebeb"/>
        <rect id="Rectangle_208" data-name="Rectangle 208" width="3.051" height="72.598" transform="translate(122.078 27.676)" fill="#ebebeb"/>
        <rect id="Rectangle_209" data-name="Rectangle 209" width="6.199" height="269.351" transform="translate(5.395 15.576)" fill="#f5f5f5"/>
        <path id="Path_2629" data-name="Path 2629" d="M135.239,282.8l-6.2-2.373V12.711h6.2Z" transform="translate(29.097 2.866)" fill="#e0e0e0"/>
        <rect id="Rectangle_210" data-name="Rectangle 210" width="158.941" height="7.183" transform="translate(5.395 12.859)" fill="#e0e0e0"/>
        <rect id="Rectangle_211" data-name="Rectangle 211" width="167.534" height="6.692" transform="translate(0.998 286.556)" fill="#e0e0e0"/>
        <path id="Path_2630" data-name="Path 2630" d="M157.953,231.172l10.395,3.259H.814l10.6-3.259Z" transform="translate(0.184 52.126)" fill="#ebebeb"/>
      </g>
    </g>
    <g id="Group_265" data-name="Group 265">
      <g id="Group_264" data-name="Group 264" clip-path="url(#clip-path)">
        <path id="Path_2631" data-name="Path 2631" d="M532.89,349.139c0,.176-118.312.319-264.223.319-145.963,0-264.249-.142-264.249-.319s118.286-.319,264.249-.319c145.911,0,264.223.142,264.223.319" transform="translate(0.996 78.654)" fill="#263238"/>
      </g>
    </g>
    <rect id="Rectangle_214" data-name="Rectangle 214" width="8.48" height="101.606" transform="translate(468.201 310.507)" fill="#455a64"/>
    <g id="Group_282" data-name="Group 282">
      <g id="Group_281" data-name="Group 281" clip-path="url(#clip-path)">
        <path id="Path_2632" data-name="Path 2632" d="M336.55,259.549H457.841a13.166,13.166,0,0,0-13.165-13.165h-94.96a13.166,13.166,0,0,0-13.165,13.165" transform="translate(75.887 55.556)" fill="#455a64"/>
        <path id="Path_2633" data-name="Path 2633" d="M378.791,257.4c0,.173,3.331.313,7.44.313s7.441-.14,7.441-.312-3.331-.312-7.441-.312-7.44.14-7.44.313" transform="translate(85.412 57.969)" fill="#263238"/>
        <path id="Path_2634" data-name="Path 2634" d="M355.244,350.658h1.2a36.084,36.084,0,1,1,72.169,0h1.2a37.284,37.284,0,1,0-74.568,0" transform="translate(80.102 70.661)" fill="#455a64"/>
        <path id="Path_2635" data-name="Path 2635" d="M411.041,346.337a5.59,5.59,0,1,0,5.591-5.591,5.591,5.591,0,0,0-5.591,5.591" transform="translate(92.684 76.833)" fill="#263238"/>
        <path id="Path_2636" data-name="Path 2636" d="M350.944,345.708a5.59,5.59,0,1,0,5.591-5.591,5.591,5.591,0,0,0-5.591,5.591" transform="translate(79.133 76.691)" fill="#455a64"/>
        <path id="Path_2637" data-name="Path 2637" d="M355.538,336.344c0,.173,16.224.313,36.233.313s36.238-.14,36.238-.312-16.221-.312-36.238-.312-36.233.14-36.233.313" transform="translate(80.169 75.77)" fill="#455a64"/>
        <path id="Path_2638" data-name="Path 2638" d="M452.3,172.752v74.8a17.762,17.762,0,0,1-17.762,17.761H376.907l7.83-92.557a7.917,7.917,0,0,1,7.915-7.917h51.735a7.917,7.917,0,0,1,7.917,7.917" transform="translate(84.987 37.168)" fill="#455a64"/>
        <path id="Path_2639" data-name="Path 2639" d="M421.807,264.113c-.009-.006.037-.081.132-.218l.423-.614c.382-.528.928-1.324,1.585-2.375a39.35,39.35,0,0,0,4.294-9.526,38.664,38.664,0,0,0,1.428-7.073A72.479,72.479,0,0,0,429.9,236c-.007-5.882-.016-12.339-.024-19.119.034-13.543.066-25.8.088-34.738.04-4.4.073-7.983.1-10.527q.035-1.8.056-2.863a6.126,6.126,0,0,1,.061-1,6.256,6.256,0,0,1,.06,1q.022,1.062.056,2.863c.023,2.543.056,6.125.1,10.527.022,8.94.054,21.195.088,34.738-.009,6.779-.016,13.236-.023,19.119a71.165,71.165,0,0,1-.287,8.361,38.28,38.28,0,0,1-1.517,7.143,37.478,37.478,0,0,1-4.5,9.528c-.691,1.038-1.27,1.814-1.685,2.321a5.212,5.212,0,0,1-.652.759" transform="translate(95.111 37.827)" fill="#263238"/>
        <path id="Path_2640" data-name="Path 2640" d="M396.2,246.45a10.575,10.575,0,0,1,1.831-.1l4.994-.061c4.218-.025,10.047-.016,16.482.029,3.217.031,6.289.036,9.07.107a29.3,29.3,0,0,1,7.4.808,11.442,11.442,0,0,1,4.45,2.331,7.488,7.488,0,0,1,.967.967c.2.237.3.366.288.381-.053.05-.471-.462-1.4-1.165a11.988,11.988,0,0,0-4.413-2.1,30.644,30.644,0,0,0-7.3-.663l-9.071-.059c-6.431-.047-12.254-.121-16.469-.206l-4.991-.131a10.759,10.759,0,0,1-1.832-.131" transform="translate(89.337 55.53)" fill="#263238"/>
        <path id="Path_2641" data-name="Path 2641" d="M354.856,106.685c-1.7,5.228-3.422,10.58-3.3,16.076.055,2.543.468,5.268-.783,7.483-.868,1.538-2.406,2.559-3.616,3.844a11.352,11.352,0,0,0-2,12.207,7.7,7.7,0,0,0,2.9,3.455,10.97,10.97,0,0,0,5.078,1.184,85.128,85.128,0,0,0,17.5-.792c2.765-.413,5.759-1.11,7.468-3.321,1.529-1.979,1.64-4.683,1.548-7.181a68.414,68.414,0,0,0-6.876-27.419" transform="translate(77.61 24.056)" fill="#263238"/>
        <path id="Path_2642" data-name="Path 2642" d="M388.3,102.455a4.327,4.327,0,1,1-.574,8.022c2.812-.487,5.51,1.642,6.816,4.18s1.61,5.452,2.278,8.228,1.879,5.651,4.319,7.131c2.326,1.411,5.607,1.468,7.113,3.734,1.565,2.354.189,5.565.844,8.315.652,2.734,3.153,4.545,5.371,6.271s4.5,4.007,4.382,6.815a6.408,6.408,0,0,1-3.835,5.17,16.718,16.718,0,0,1-6.591,1.276,96.878,96.878,0,0,1-32.9-4.239,9.014,9.014,0,0,1-4.549-2.523c-1.685-2.091-1.286-5.113-.8-7.752,1.544-8.371,3.1-16.776,5.838-24.834s6.736-15.816,12.627-21.961" transform="translate(83.374 22.613)" fill="#263238"/>
        <path id="Path_2643" data-name="Path 2643" d="M420.3,176.042h13.1l-4.653-23.334c-3.428-19.1-30.2-20.413-30.2-20.413l-21.013-.341s-15.577-2.1-25.192,8.744c-1.974,2.227-4.037,4.532-6.077,6.8l-22.79,23.844-2.42-29.914-19.521,3.061,2.728,37.572a15.393,15.393,0,0,0,10.319,13.315c4.222,1.341,8.516.165,12.8-1.971,11.369-5.67,32.686-23.7,34.322-25.091-.987,2.023-2.945,6.587-2.945,10.925,0,6.221,6.382,10.877,6.382,10.877l1.989,18.936-6.6,30.571,68.617-2.752a68.221,68.221,0,0,0-10.116-28.833Zm-58.561-7.821a1.74,1.74,0,0,1-.227-.462l.735-.522s-.2.364-.509.984" transform="translate(67.989 29.717)" fill="#3a3089"/>
        <path id="Path_2644" data-name="Path 2644" d="M377.812,214.19a118.6,118.6,0,0,1-11.107,6.739c-4.868,2.316-5.094,1.886-5.283,1.278-.506-1.636,8.4-4.4,6.114-4.9s-10.469,4.631-10.928,2.9c-.6-2.254,8.783-4.974,9.559-5.263.752-.279.355-1.408-.33-1.11-.985.428-11.448,4.665-12.056,2.457-.338-1.224,1.942-1.572,1.942-1.572s10.1-3.25,9.778-4.283c-.327-1.049-6.327.661-8.306,1.379-1.956.71-3.112.077-2.729-1.042.26-.762,6.266-3.1,8.24-3.768s7.425-2.393,3.99-3.7-5.6-3.582-5.757-4.588,1.2-1.562,2.01-.757a13.732,13.732,0,0,0,3.158,1.94,8.97,8.97,0,0,0,2.849.844c.857.1,1.616.168,2.3.213l7.3.55,3.681,9.656Z" transform="translate(79.765 44.549)" fill="#ffbe9d"/>
        <path id="Path_2645" data-name="Path 2645" d="M406.423,139.314a25.713,25.713,0,0,1,8.636,12.922c1.619,5.3,6.266,23.241,9.685,36.594a17.116,17.116,0,0,1-11.207,20.5l-38.621,20.866-6.308-16.321L402.493,191.6,394.3,161.275c-1.347-4.616-1.928-9.309-.239-13.81,1.733-4.614,5.244-9.013,12.36-8.151" transform="translate(83.116 31.389)" fill="#3a3089"/>
        <path id="Path_2646" data-name="Path 2646" d="M303.038,148.155l-2.341-7.5c-1.094-5.37,3.152-6.233,3.864-7.031a11.214,11.214,0,0,1,3.787-3.061l-.341-2.163a51.572,51.572,0,0,1-1.222-7.04c.053-1.288,2.363-1.377,2.7-.131.765,2.837,2.1,7.642,2.81,9.411.94,2.327,3.027,8.426,5.221,4.641s1.964-6,2.341-7.174c.4-1.241,3.143-1.471,2.607,1.1-.224,1.076-.358,2.983-1.033,5.565-.3,1.149-.936,2.566-1.259,3.71-.373,1.333-.54,6.311-.741,7.29Z" transform="translate(67.762 27.135)" fill="#ffbe9d"/>
        <path id="Path_2647" data-name="Path 2647" d="M304.118,132.356a19.855,19.855,0,0,1,.588,2.211,16.457,16.457,0,0,0,.852,2.294,4.391,4.391,0,0,1,.485,1.494,1.575,1.575,0,0,1-.884,1.623,1.935,1.935,0,0,1-1.784-.352,4.405,4.405,0,0,1-1.072-1.153,6.717,6.717,0,0,1-.93-2.4,6.149,6.149,0,0,1-.148-2.319,13.112,13.112,0,0,1,.587,2.214,7.038,7.038,0,0,0,.978,2.175,4.056,4.056,0,0,0,.944.972,1.367,1.367,0,0,0,1.189.272.971.971,0,0,0,.5-.993,4.148,4.148,0,0,0-.4-1.3,13.091,13.091,0,0,1-.75-2.422,5.356,5.356,0,0,1-.151-2.319" transform="translate(67.91 29.844)" fill="#eb996e"/>
        <path id="Path_2648" data-name="Path 2648" d="M306.967,130.328a14.549,14.549,0,0,1,1.115,2.843l1.04,3.138c.181.6.413,1.184.571,1.9a2.241,2.241,0,0,1-.055,1.183,1.778,1.778,0,0,1-.837.949,2.261,2.261,0,0,1-2.31-.119,3.729,3.729,0,0,1-1.353-1.6,23.635,23.635,0,0,1-1-3.2,14.5,14.5,0,0,1-.663-2.982,14.55,14.55,0,0,1,1.1,2.85,31.757,31.757,0,0,0,1.093,3.067,3.219,3.219,0,0,0,1.153,1.327,1.642,1.642,0,0,0,1.677.092,1.24,1.24,0,0,0,.583-1.458c-.121-.605-.354-1.252-.517-1.843-.326-1.138-.631-2.2-.911-3.179a14.531,14.531,0,0,1-.684-2.977" transform="translate(68.426 29.387)" fill="#eb996e"/>
        <path id="Path_2649" data-name="Path 2649" d="M317.01,171.072c-.163-.069.381-1.723,1.214-3.694s1.64-3.513,1.8-3.445-.381,1.722-1.214,3.694-1.64,3.513-1.8,3.445" transform="translate(71.475 36.964)" fill="#263238"/>
        <path id="Path_2650" data-name="Path 2650" d="M345.075,168.671a19.384,19.384,0,0,1-3.444-.8l-3.687-1.042a20.966,20.966,0,0,1-4.4-1.773,9.738,9.738,0,0,1-3.507-3.263A6.99,6.99,0,0,1,329,158.021a23.014,23.014,0,0,0-.086-2.559,5.787,5.787,0,0,1-.137-.933c.033-.015.223.281.381.886a14.587,14.587,0,0,1,.293,2.583,6.813,6.813,0,0,0,1.081,3.483,9.572,9.572,0,0,0,3.326,3.022,22.76,22.76,0,0,0,4.26,1.766l3.642,1.17a19.426,19.426,0,0,1,3.314,1.23" transform="translate(74.132 34.844)" fill="#e0e0e0"/>
        <path id="Path_2651" data-name="Path 2651" d="M390.674,207.663c-.108-.009.026-1.1-.309-2.8a17.172,17.172,0,0,0-2.706-6.147c-.732-1.109-1.5-2.123-2.2-3.045a17.93,17.93,0,0,0-1.939-2.335,2.97,2.97,0,0,0-1.76-.788c-.467-.028-.727.081-.745.029-.018-.027.216-.225.741-.277a2.98,2.98,0,0,1,2.049.686,15.056,15.056,0,0,1,2.115,2.32c.733.908,1.527,1.924,2.276,3.058a15.4,15.4,0,0,1,2.618,6.425,5.784,5.784,0,0,1-.136,2.875" transform="translate(85.912 43.358)" fill="#e0e0e0"/>
        <path id="Path_2652" data-name="Path 2652" d="M421.592,151.953a5.727,5.727,0,0,1-.951-.272l-2.7-.859A32.948,32.948,0,0,0,407.8,149.04a16.317,16.317,0,0,0-6.843,1.61,32.994,32.994,0,0,0-6.745,4.6,78.694,78.694,0,0,1-7.165,5.69,18.937,18.937,0,0,1-9.259,3.342,10.7,10.7,0,0,1-4.971-.993,12.735,12.735,0,0,1-3.934-2.941,88.537,88.537,0,0,1-5.516-7.3A21.085,21.085,0,0,0,350.8,145a22.118,22.118,0,0,0-10.229.148c-2.363.635-3.565,1.306-3.6,1.227a15.239,15.239,0,0,1,3.533-1.466,21.691,21.691,0,0,1,10.388-.35,22.115,22.115,0,0,1,6.759,2.587,20.8,20.8,0,0,1,6.181,5.544c1.793,2.311,3.362,4.953,5.5,7.224a10.753,10.753,0,0,0,8.428,3.725,18.431,18.431,0,0,0,8.944-3.228,80.633,80.633,0,0,0,7.129-5.619,33.213,33.213,0,0,1,6.895-4.621,16.636,16.636,0,0,1,7.061-1.582,31.638,31.638,0,0,1,10.233,2c1.165.4,2.059.739,2.662.974a5.708,5.708,0,0,1,.908.393" transform="translate(75.982 32.491)" fill="#e0e0e0"/>
        <path id="Path_2653" data-name="Path 2653" d="M403.448,177.825a12.819,12.819,0,0,0-2.208-.507,12.446,12.446,0,0,0-5.953,1.373c-2.391,1.05-5.135,2.7-8.521,3.736a34.931,34.931,0,0,1-11.3,1.642,34.013,34.013,0,0,1-11.219-2.123,34.753,34.753,0,0,1-8.227-4.392,32.951,32.951,0,0,1-4.716-4.152c-.51-.539-.879-.982-1.12-1.289a2.062,2.062,0,0,1-.347-.485c.045-.039.582.578,1.643,1.6a38.31,38.31,0,0,0,4.8,3.958,35.883,35.883,0,0,0,8.169,4.207,34.358,34.358,0,0,0,11.029,2.038,35.293,35.293,0,0,0,11.109-1.566c3.332-.982,6.055-2.567,8.52-3.591a12.143,12.143,0,0,1,6.157-1.2,5.132,5.132,0,0,1,2.183.755" transform="translate(78.883 38.699)" fill="#e0e0e0"/>
        <path id="Path_2654" data-name="Path 2654" d="M416.388,172.468a2.452,2.452,0,0,1-.3.923,11.383,11.383,0,0,1-1.359,2.275,12.516,12.516,0,0,1-7.277,4.675,21.29,21.29,0,0,1-8.689-.214,16.563,16.563,0,0,1-3.468-.929,25.066,25.066,0,0,1,3.545.484,23.591,23.591,0,0,0,8.472.037,12.847,12.847,0,0,0,7.064-4.335c1.4-1.673,1.908-2.968,2.015-2.915" transform="translate(89.132 38.889)" fill="#e0e0e0"/>
        <path id="Path_2655" data-name="Path 2655" d="M393.763,155.089a3.284,3.284,0,0,1,.173.589c.105.433.245,1.007.422,1.735.382,1.566.925,3.783,1.61,6.586,1.409,5.669,3.48,13.759,6.077,23.444l.05.186-.159.11-28.554,19.7-4.522,3.11.115-.38c2.249,5.647,4.407,11.067,6.42,16.122l-.413-.158c11.847-5.847,21.821-11.187,28.838-15.045l8.187-4.54,2.183-1.207a5.331,5.331,0,0,1,.77-.387,5.678,5.678,0,0,1-.719.475q-.783.474-2.134,1.292c-1.873,1.114-4.619,2.717-8.105,4.692-6.971,3.951-16.914,9.368-28.752,15.259l-.292.146-.121-.3-6.452-16.11-.094-.235.21-.145,4.521-3.112,28.6-19.627-.109.3c-2.545-9.7-4.54-17.816-5.859-23.511-.662-2.846-1.145-5.091-1.464-6.623-.142-.735-.255-1.316-.341-1.754a3.26,3.26,0,0,1-.088-.608" transform="translate(83.044 34.97)" fill="#263238"/>
        <path id="Path_2656" data-name="Path 2656" d="M404.935,184.445a30.01,30.01,0,0,0-4.466-2.088,14.154,14.154,0,0,0-3.39-.648c-.885-.055-1.441.006-1.462-.091-.018-.075.526-.3,1.461-.36a9.964,9.964,0,0,1,3.583.491c2.752.832,4.422,2.586,4.273,2.7" transform="translate(89.206 40.867)" fill="#263238"/>
        <path id="Path_2657" data-name="Path 2657" d="M289.325,293.6l5.072-10.526,19.778,9.375-7.257,15.478-1.263-.5c-5.6-2.284-28.32-12.007-31.443-14.843-3.484-3.163,15.114,1.018,15.114,1.018" transform="translate(61.732 63.83)" fill="#e8505b"/>
        <g id="Group_268" data-name="Group 268" transform="translate(361.552 364.997)" opacity="0.5">
          <g id="Group_267" data-name="Group 267">
            <g id="Group_266" data-name="Group 266" clip-path="url(#clip-path-5)">
              <path id="Path_2658" data-name="Path 2658" d="M295.028,301.05a7.6,7.6,0,0,1,4.522-3.021,7.38,7.38,0,0,1,5.305.754l-2.616,5.529Z" transform="translate(-295.028 -297.839)" fill="#fff"/>
            </g>
          </g>
        </g>
        <g id="Group_271" data-name="Group 271" transform="translate(335.403 355.26)" opacity="0.4">
          <g id="Group_270" data-name="Group 270">
            <g id="Group_269" data-name="Group 269" clip-path="url(#clip-path-6)">
              <path id="Path_2659" data-name="Path 2659" d="M280.119,290.318s-6.695-1.093-6.42.226,22.863,12.008,33.239,15.852l.178-.457-26.453-12.245s.586-2.782-.543-3.375" transform="translate(-273.69 -289.893)" fill="#fff"/>
            </g>
          </g>
        </g>
        <path id="Path_2660" data-name="Path 2660" d="M307.4,306.015a2.009,2.009,0,0,1-.358-.124l-1-.4-3.669-1.548c-3.088-1.328-7.331-3.219-11.971-5.409s-8.8-4.268-11.783-5.81l-3.526-1.852-.95-.52a2.1,2.1,0,0,1-.322-.2,2.009,2.009,0,0,1,.348.149l.972.475,3.563,1.776c3.009,1.5,7.175,3.547,11.812,5.738s8.864,4.107,11.933,5.478l3.635,1.624.984.45a2.039,2.039,0,0,1,.337.173" transform="translate(61.742 65.425)" fill="#263238"/>
        <path id="Path_2661" data-name="Path 2661" d="M279.345,293.982a5.779,5.779,0,0,0-.434-3.991,3.537,3.537,0,0,1,.434,3.991" transform="translate(62.889 65.388)" fill="#263238"/>
        <path id="Path_2662" data-name="Path 2662" d="M285.231,293.479a2.3,2.3,0,0,1-.265-1.054,2.34,2.34,0,0,1,0-1.087,2.3,2.3,0,0,1,.266,1.054,2.348,2.348,0,0,1,0,1.087" transform="translate(64.243 65.692)" fill="#263238"/>
        <path id="Path_2663" data-name="Path 2663" d="M286.94,293.325c-.067.028-.281-.328-.477-.8s-.3-.87-.233-.9.282.328.477.8.3.87.233.9" transform="translate(64.536 65.758)" fill="#263238"/>
        <path id="Path_2664" data-name="Path 2664" d="M288.736,292.059a2.586,2.586,0,0,1-1.094-.357c-.573-.265-1.013-.532-.984-.6a2.563,2.563,0,0,1,1.094.357c.574.263,1.015.532.984.6" transform="translate(64.637 65.636)" fill="#263238"/>
        <path id="Path_2665" data-name="Path 2665" d="M289.593,291.113a3.215,3.215,0,0,1-2.425-.931,105.657,105.657,0,0,0,2.425.931" transform="translate(64.751 65.43)" fill="#263238"/>
        <path id="Path_2666" data-name="Path 2666" d="M285.887,292.006a4.046,4.046,0,0,1-1.267-.61,8.09,8.09,0,0,1-1.212-.939,4.019,4.019,0,0,1-.624-.685.759.759,0,0,1-.129-.544.553.553,0,0,1,.434-.417,2.578,2.578,0,0,1,2.56,2.047,2.514,2.514,0,0,1,.013,1.044c-.053.241-.115.364-.13.359a3.982,3.982,0,0,0-.066-1.359,2.543,2.543,0,0,0-.751-1.219,2.182,2.182,0,0,0-1.565-.614c-.272.054-.306.328-.145.569a4.228,4.228,0,0,0,.57.643,9.746,9.746,0,0,0,1.148.961c.7.5,1.181.725,1.163.765" transform="translate(63.732 65.122)" fill="#263238"/>
        <path id="Path_2667" data-name="Path 2667" d="M285,291.708a1.386,1.386,0,0,1,.271-.952,2.322,2.322,0,0,1,.787-.765,1.414,1.414,0,0,1,1.365-.147.559.559,0,0,1,.114.772,1.532,1.532,0,0,1-.485.467,4.213,4.213,0,0,1-.963.484,2.026,2.026,0,0,1-.972.17c-.007-.042.362-.108.9-.344a4.914,4.914,0,0,0,.893-.511c.3-.186.65-.611.359-.821a1.258,1.258,0,0,0-1.093.143,2.316,2.316,0,0,0-.751.657,5.167,5.167,0,0,0-.426.847" transform="translate(64.26 65.327)" fill="#263238"/>
        <path id="Path_2668" data-name="Path 2668" d="M304.763,298.756c-.026.043-.54-.322-1.485-.64a6.856,6.856,0,0,0-7.136,1.678c-.7.7-1,1.261-1.044,1.234a1.235,1.235,0,0,1,.188-.4,5.805,5.805,0,0,1,.721-.966,6.652,6.652,0,0,1,7.336-1.724,5.676,5.676,0,0,1,1.075.543c.238.157.357.26.347.273" transform="translate(66.54 67.08)" fill="#263238"/>
        <path id="Path_2669" data-name="Path 2669" d="M305.18,291.013a38.509,38.509,0,0,1-1.751,4.145,37.979,37.979,0,0,1-1.994,4.034,76.613,76.613,0,0,1,3.745-8.179" transform="translate(67.968 65.619)" fill="#263238"/>
        <path id="Path_2670" data-name="Path 2670" d="M294.811,298.417A17.96,17.96,0,0,1,289,295.736c.039-.066,1.294.624,2.9,1.36s2.937,1.248,2.912,1.321" transform="translate(65.166 66.683)" fill="#263238"/>
        <path id="Path_2671" data-name="Path 2671" d="M297.1,299.421c.026.071-.235.223-.507.458s-.469.462-.536.425.047-.36.364-.629.659-.322.679-.255" transform="translate(66.753 67.509)" fill="#263238"/>
        <path id="Path_2672" data-name="Path 2672" d="M299.005,298.5c.024.069-.2.214-.5.325s-.569.145-.593.076.2-.214.5-.325.569-.145.594-.076" transform="translate(67.173 67.3)" fill="#263238"/>
        <path id="Path_2673" data-name="Path 2673" d="M301.07,298.695c-.045.06-.308-.066-.646-.1s-.623.021-.653-.049.265-.265.683-.214.665.314.616.365" transform="translate(67.593 67.267)" fill="#263238"/>
        <path id="Path_2674" data-name="Path 2674" d="M302.325,298.91c0,.073-.167.121-.362.107s-.347-.085-.342-.157.167-.121.362-.107.347.085.342.157" transform="translate(68.011 67.364)" fill="#263238"/>
        <path id="Path_2675" data-name="Path 2675" d="M337.2,345.934l-.24-11.683,21.879-.588.532,17.087-1.354.124c-6.028.5-30.687,2.105-34.756.99-4.538-1.244,13.94-5.93,13.94-5.93" transform="translate(72.729 75.236)" fill="#e8505b"/>
        <g id="Group_274" data-name="Group 274" transform="translate(424.166 419.55)" opacity="0.5">
          <g id="Group_273" data-name="Group 273">
            <g id="Group_272" data-name="Group 272" clip-path="url(#clip-path-7)">
              <path id="Path_2676" data-name="Path 2676" d="M346.121,348.833a7.587,7.587,0,0,1,2.667-4.74,7.375,7.375,0,0,1,5.071-1.728l.169,6.115Z" transform="translate(-346.121 -342.354)" fill="#fff"/>
            </g>
          </g>
        </g>
        <g id="Group_277" data-name="Group 277" transform="translate(395.214 423.784)" opacity="0.4">
          <g id="Group_276" data-name="Group 276">
            <g id="Group_275" data-name="Group 275" clip-path="url(#clip-path-8)">
              <path id="Path_2677" data-name="Path 2677" d="M328.2,345.809s-6.466,2.055-5.624,3.107,25.822.364,36.815-.9l-.049-.488-29.131,1.05s-.737-2.745-2.011-2.765" transform="translate(-322.496 -345.809)" fill="#fff"/>
            </g>
          </g>
        </g>
        <path id="Path_2678" data-name="Path 2678" d="M359.67,347.191a2.208,2.208,0,0,1-.375.051l-1.078.094-3.972.281c-3.355.213-8,.446-13.124.592s-9.776.174-13.137.151L324,348.3l-1.082-.033a1.937,1.937,0,0,1-.377-.031,2.057,2.057,0,0,1,.377-.023L324,348.2l3.98-.028c3.36-.025,8-.085,13.13-.228s9.763-.349,13.12-.515l3.975-.2,1.082-.045a2.088,2.088,0,0,1,.379,0" transform="translate(72.729 78.285)" fill="#263238"/>
        <path id="Path_2679" data-name="Path 2679" d="M329.2,348.962a5.8,5.8,0,0,0-2.192-3.363,3.54,3.54,0,0,1,2.192,3.363" transform="translate(73.736 77.926)" fill="#263238"/>
        <path id="Path_2680" data-name="Path 2680" d="M334.219,345.855c-.061.04-.38-.326-.713-.82s-.553-.928-.493-.969.38.326.713.821.554.928.493.968" transform="translate(75.087 77.581)" fill="#263238"/>
        <path id="Path_2681" data-name="Path 2681" d="M335.677,344.941c-.048.056-.4-.165-.786-.494s-.661-.64-.614-.695.4.165.786.493.662.64.614.7" transform="translate(75.374 77.509)" fill="#263238"/>
        <path id="Path_2682" data-name="Path 2682" d="M336.708,343.028a4.959,4.959,0,0,1-2.285.088,5,5,0,0,1,2.285-.088" transform="translate(75.407 77.326)" fill="#263238"/>
        <path id="Path_2683" data-name="Path 2683" d="M337.043,341.818a3.213,3.213,0,0,1-2.583.266,90.963,90.963,0,0,0,2.583-.266" transform="translate(75.416 77.07)" fill="#263238"/>
        <path id="Path_2684" data-name="Path 2684" d="M334.111,344.332a4.059,4.059,0,0,1-1.406.029,8.211,8.211,0,0,1-1.506-.288,4.146,4.146,0,0,1-.866-.33.76.76,0,0,1-.36-.428.553.553,0,0,1,.2-.567,2.58,2.58,0,0,1,3.21.667,2.514,2.514,0,0,1,.484.925c.064.239.063.376.047.379a3.984,3.984,0,0,0-.673-1.181,2.538,2.538,0,0,0-1.223-.748,2.179,2.179,0,0,0-1.672.161c-.219.172-.125.431.127.572a4.189,4.189,0,0,0,.8.316,9.888,9.888,0,0,0,1.458.337c.847.126,1.382.113,1.384.156" transform="translate(74.4 77.215)" fill="#263238"/>
        <path id="Path_2685" data-name="Path 2685" d="M333.087,344.557a1.387,1.387,0,0,1-.189-.972,2.3,2.3,0,0,1,.355-1.038,1.412,1.412,0,0,1,1.151-.749.559.559,0,0,1,.451.637,1.524,1.524,0,0,1-.222.635,4.236,4.236,0,0,1-.64.869,2.053,2.053,0,0,1-.789.592c-.026-.034.273-.261.648-.716a4.889,4.889,0,0,0,.565-.86c.185-.3.3-.839-.051-.893-.353-.025-.7.336-.909.621a2.3,2.3,0,0,0-.373.925,5.146,5.146,0,0,0,0,.949" transform="translate(75.062 77.07)" fill="#263238"/>
        <path id="Path_2686" data-name="Path 2686" d="M353.741,342.336c0,.049-.629-.043-1.614.1a6.858,6.858,0,0,0-5.605,4.725c-.308.947-.322,1.578-.373,1.573a1.276,1.276,0,0,1-.012-.441,5.751,5.751,0,0,1,.206-1.187,6.652,6.652,0,0,1,5.761-4.857,5.826,5.826,0,0,1,1.2,0,1.284,1.284,0,0,1,.433.087" transform="translate(78.047 77.165)" fill="#263238"/>
        <path id="Path_2687" data-name="Path 2687" d="M350.293,334.936a76.752,76.752,0,0,1,.362,8.988,76.078,76.078,0,0,1-.362-8.988" transform="translate(78.976 75.523)" fill="#263238"/>
        <path id="Path_2688" data-name="Path 2688" d="M345,345.966a18,18,0,0,1-6.392.237c0-.077,1.436-.028,3.2-.1s3.184-.216,3.195-.14" transform="translate(76.352 78.005)" fill="#263238"/>
        <path id="Path_2689" data-name="Path 2689" d="M347.436,345.861c.055.053-.109.306-.245.638s-.21.624-.284.621-.123-.342.039-.724.441-.587.49-.536" transform="translate(78.207 77.985)" fill="#263238"/>
        <path id="Path_2690" data-name="Path 2690" d="M348.748,344.185c.054.05-.082.282-.3.517s-.442.386-.5.336.081-.281.3-.517.441-.386.5-.336" transform="translate(78.455 77.606)" fill="#263238"/>
        <path id="Path_2691" data-name="Path 2691" d="M350.694,343.4c-.015.075-.305.08-.624.2s-.544.3-.6.251.115-.355.511-.5.735-.022.714.047" transform="translate(78.797 77.406)" fill="#263238"/>
        <path id="Path_2692" data-name="Path 2692" d="M351.919,343c.028.067-.094.184-.273.259s-.348.082-.377.015.094-.184.275-.259.348-.082.376-.015" transform="translate(79.205 77.331)" fill="#263238"/>
        <path id="Path_2693" data-name="Path 2693" d="M348.551,172.376a17.662,17.662,0,0,1,.825-3.153c.289-.963.642-2.109,1.082-3.369.221-.631.464-1.289.744-1.964.153-.365.344-.676.441-.979a3.062,3.062,0,0,0,.125-1.007,15.082,15.082,0,0,0-.326-2.154q-.2-1.055-.381-2.05c-.217-1.245-.42-2.409-.607-3.478a15.576,15.576,0,0,1-.39-3.238,15.621,15.621,0,0,1,.859,3.146c.23,1.06.48,2.214.749,3.451q.2.991.42,2.042a14.166,14.166,0,0,1,.352,2.266,3.673,3.673,0,0,1-.162,1.234c-.138.408-.344.725-.471,1.026-.281.657-.534,1.3-.768,1.92-.435,1.185-.841,2.29-1.214,3.306a14,14,0,0,1-1.278,3" transform="translate(78.59 34.044)" fill="#263238"/>
        <g id="Group_280" data-name="Group 280" transform="translate(475.645 186.638)" opacity="0.3">
          <g id="Group_279" data-name="Group 279">
            <g id="Group_278" data-name="Group 278" clip-path="url(#clip-path-9)">
              <path id="Path_2694" data-name="Path 2694" d="M388.128,152.3c.852,13.015,2.164,27.636,2.415,40.676,2-.906,6.763-4.348,6.763-4.83,0,0-6.213-21.825-9.179-35.847" transform="translate(-388.128 -152.297)"/>
            </g>
          </g>
        </g>
        <path id="Path_2695" data-name="Path 2695" d="M432.9,217.843s-89.726-18.8-98.415-14.681S285.74,306.3,285.74,306.3l27.021,9.925,36.682-82.164S415.527,258.982,426.5,256.7s6.4-38.859,6.4-38.859" transform="translate(64.43 45.677)" fill="#263238"/>
        <path id="Path_2696" data-name="Path 2696" d="M383.737,219.34c-1.371.457-53.274,21.793-56.932,28.652s5.328,120.742,5.328,120.742h29.521l-1.828-101.216,57.614-14.6Z" transform="translate(73.492 49.458)" fill="#263238"/>
        <path id="Path_2697" data-name="Path 2697" d="M415.621,251.422a4.021,4.021,0,0,1-.85-.1l-2.415-.428c-2.094-.386-5.118-.982-8.842-1.773-7.451-1.574-17.708-3.951-28.885-7.156-5.586-1.618-10.864-3.3-15.63-4.942-4.746-1.689-9-3.27-12.506-4.77-1.767-.713-3.338-1.423-4.717-2.049s-2.564-1.165-3.513-1.651l-2.19-1.1a3.977,3.977,0,0,1-.744-.426,4.1,4.1,0,0,1,.8.3l2.243.988c.964.449,2.159.964,3.554,1.543s2.971,1.27,4.745,1.953c3.518,1.44,7.782,2.969,12.529,4.623,4.766,1.6,10.038,3.267,15.614,4.881,11.156,3.2,21.381,5.647,28.8,7.339l8.792,1.982,2.39.553a4.039,4.039,0,0,1,.824.238" transform="translate(75.611 51.189)" fill="#455a64"/>
        <path id="Path_2698" data-name="Path 2698" d="M326.97,270.569a8.491,8.491,0,0,1-.273-1.7c-.13-1.237-.3-2.8-.493-4.67-.188-2.02-.406-4.36-.645-6.934a31.649,31.649,0,0,1-.013-8.587,13.4,13.4,0,0,1,4.309-7.422,22.653,22.653,0,0,1,5.906-3.8,46.064,46.064,0,0,1,4.382-1.727,8.232,8.232,0,0,1,1.658-.484c.049.121-2.282.933-5.833,2.642a23.385,23.385,0,0,0-5.687,3.822,12.978,12.978,0,0,0-4.069,7.092,32.7,32.7,0,0,0-.031,8.408c.185,2.578.354,4.923.5,6.946.112,1.875.2,3.447.278,4.687a8.435,8.435,0,0,1,.011,1.727" transform="translate(73.338 53.043)" fill="#455a64"/>
        <path id="Path_2699" data-name="Path 2699" d="M347.784,256.091c.075-.17,1.7.379,3.63,1.228s3.434,1.676,3.359,1.847-1.7-.379-3.631-1.228-3.433-1.676-3.358-1.847" transform="translate(78.42 57.738)" fill="#263238"/>
        <path id="Path_2700" data-name="Path 2700" d="M349.914,253.544c.183-.077,1,1.559,2.35,3.332s2.689,3.018,2.564,3.172c-.1.145-1.7-.9-3.1-2.763s-1.975-3.683-1.81-3.74" transform="translate(78.894 57.17)" fill="#263238"/>
        <path id="Path_2701" data-name="Path 2701" d="M360.4,257.359c.022.016-.087.244-.455.464a3.493,3.493,0,0,1-1.711.4,20.134,20.134,0,0,0-2.453.063,1.715,1.715,0,0,0-1.467,1.88c-.033,4.325-.175,7.887-.368,7.879s-.343-3.518-.309-7.918a2.77,2.77,0,0,1,.559-1.678,2.291,2.291,0,0,1,1.483-.778,14.2,14.2,0,0,1,2.559.075,4.216,4.216,0,0,0,2.162-.391" transform="translate(79.739 58.029)" fill="#263238"/>
        <path id="Path_2702" data-name="Path 2702" d="M356.1,87.509c-4.482,1.45-9.694,4.431-7.112,18.467,1.136,6.175,2.578,12.473,6.721,17.192a2.949,2.949,0,0,0,2.4,1.325,3.014,3.014,0,0,0,1.658-1.123c4.708-5.13,8.716-11.186,9.986-18.032s-.635-14.561-6.024-18.969" transform="translate(78.537 19.475)" fill="#263238"/>
        <path id="Path_2703" data-name="Path 2703" d="M363.745,149.277c-.148-6.458-.423-13.39-.423-13.39s-9.826-1.239-10.25-11.268-.525-27.6-.525-27.6l19.184-14.213,13.479,18.542.33,47.6a10.9,10.9,0,0,1-21.8.331" transform="translate(79.494 18.672)" fill="#ffbe9d"/>
        <path id="Path_2704" data-name="Path 2704" d="M361.34,126.906a23.926,23.926,0,0,0,13.011-4.26s-3.058,7.306-12.841,6.722Z" transform="translate(81.477 27.655)" fill="#eb996e"/>
        <path id="Path_2705" data-name="Path 2705" d="M362.083,117.2a1.178,1.178,0,0,1,1.2-1.664,1.857,1.857,0,0,1,1.879-1.642,2.1,2.1,0,0,1,1.9,1.708,2.421,2.421,0,0,1-1.072,2.376,2.868,2.868,0,0,1-2.645.194,2.089,2.089,0,0,1-1.333-1.576" transform="translate(81.621 25.68)" fill="#eb996e"/>
        <path id="Path_2706" data-name="Path 2706" d="M354.2,104.562a1.376,1.376,0,0,0,1.327,1.388,1.316,1.316,0,0,0,1.419-1.241,1.378,1.378,0,0,0-1.326-1.39,1.319,1.319,0,0,0-1.42,1.243" transform="translate(79.867 23.297)" fill="#263238"/>
        <path id="Path_2707" data-name="Path 2707" d="M354.255,103.676c.17.179,1.213-.592,2.695-.588,1.479-.017,2.566.745,2.727.564.08-.081-.094-.4-.567-.75a3.788,3.788,0,0,0-2.184-.673,3.639,3.639,0,0,0-2.145.692c-.456.349-.61.674-.526.755" transform="translate(79.874 23.051)" fill="#263238"/>
        <path id="Path_2708" data-name="Path 2708" d="M366.333,104.676a1.376,1.376,0,0,0,1.327,1.388,1.316,1.316,0,0,0,1.419-1.241,1.378,1.378,0,0,0-1.326-1.39,1.319,1.319,0,0,0-1.42,1.243" transform="translate(82.602 23.322)" fill="#263238"/>
        <path id="Path_2709" data-name="Path 2709" d="M366.136,103.9c.17.179,1.214-.592,2.695-.588,1.479-.017,2.567.745,2.728.563.078-.08-.093-.4-.569-.748a3.77,3.77,0,0,0-2.184-.674,3.633,3.633,0,0,0-2.145.692c-.455.349-.609.674-.526.755" transform="translate(82.553 23.102)" fill="#263238"/>
        <path id="Path_2710" data-name="Path 2710" d="M362.44,114.87a9.76,9.76,0,0,0-2.406-.434c-.379-.039-.736-.114-.8-.373a1.919,1.919,0,0,1,.252-1.121l1.119-2.88c1.553-4.1,2.678-7.472,2.512-7.533s-1.56,3.212-3.113,7.314c-.374,1.011-.732,1.974-1.072,2.9a2.2,2.2,0,0,0-.2,1.484.947.947,0,0,0,.623.553,2.521,2.521,0,0,0,.642.089,9.625,9.625,0,0,0,2.439,0" transform="translate(80.874 23.119)" fill="#263238"/>
        <path id="Path_2711" data-name="Path 2711" d="M366.172,113.435c-.241-.013-.244,1.594-1.62,2.735s-3.087.964-3.1,1.189c-.022.1.382.313,1.105.332a4,4,0,0,0,2.588-.9A3.487,3.487,0,0,0,366.4,114.5c.061-.673-.118-1.071-.228-1.061" transform="translate(81.502 25.578)" fill="#263238"/>
        <path id="Path_2712" data-name="Path 2712" d="M365.59,101.141c.146.4,1.625.212,3.363.422,1.741.174,3.143.683,3.374.322.1-.173-.141-.553-.708-.942a5.893,5.893,0,0,0-5.132-.566c-.637.257-.958.574-.9.765" transform="translate(82.433 22.556)" fill="#263238"/>
        <path id="Path_2713" data-name="Path 2713" d="M354.7,100.193c.261.338,1.281-.011,2.509-.028,1.225-.059,2.266.227,2.5-.125.1-.172-.059-.509-.513-.827a3.63,3.63,0,0,0-4.039.125c-.434.346-.576.692-.461.855" transform="translate(79.972 22.246)" fill="#263238"/>
        <path id="Path_2714" data-name="Path 2714" d="M375.99,104.555a7.7,7.7,0,0,0,4.882-1.741c.887,2.366.871,4.989,1.683,7.384s1.615,25.451,4.115,25.075c2.3-.346,5.034-23.486,5.62-25.733,1.618-6.2-.409-13.042-4.534-17.951-4.9-5.826-13.058-10.794-20.649-10.257a17.063,17.063,0,0,0-9.409,3.314s-4.1,3.158-3.755,7.186c.477,5.615,8.664,9.232,14.3,9.061l.8.779a9.744,9.744,0,0,0,6.95,2.884" transform="translate(79.804 18.33)" fill="#263238"/>
        <path id="Path_2715" data-name="Path 2715" d="M352.549,100.832a8.321,8.321,0,0,0,2.8-4.494A24.831,24.831,0,0,0,356,91c.026-.52-.05-1.189-.553-1.326-.484-.134-.892.368-1.127.813a17.3,17.3,0,0,0-1.772,10.861c.107-.1-.335.282-.228.183" transform="translate(79.438 20.215)" fill="#263238"/>
      </g>
    </g>
    <g id="Group_296" data-name="Group 296">
      <g id="Group_295" data-name="Group 295" clip-path="url(#clip-path)">
        <path id="Path_2716" data-name="Path 2716" d="M243.21,347.378l.069-12.015-22.5-.272-.287,17.576,1.393.107c6.206.419,31.583,1.7,35.75.49,4.647-1.349-14.422-5.886-14.422-5.886" transform="translate(49.717 75.558)" fill="#e8505b"/>
        <g id="Group_285" data-name="Group 285" transform="translate(270.232 421.598)" opacity="0.4">
          <g id="Group_284" data-name="Group 284">
            <g id="Group_283" data-name="Group 283" clip-path="url(#clip-path-11)">
              <path id="Path_2717" data-name="Path 2717" d="M228.645,350.574a7.819,7.819,0,0,0-2.814-4.833,7.59,7.59,0,0,0-5.24-1.7l-.081,6.289Z" transform="translate(-220.51 -344.025)"/>
            </g>
          </g>
        </g>
        <g id="Group_288" data-name="Group 288" transform="translate(270.205 425.486)" opacity="0.4">
          <g id="Group_287" data-name="Group 287">
            <g id="Group_286" data-name="Group 286" clip-path="url(#clip-path-12)">
              <path id="Path_2718" data-name="Path 2718" d="M252.522,347.2s6.678,2.015,5.828,3.108-26.543.767-37.864-.369l.043-.5,29.966.636s.716-2.833,2.027-2.873" transform="translate(-220.488 -347.198)"/>
            </g>
          </g>
        </g>
        <path id="Path_2719" data-name="Path 2719" d="M220.234,349.01a1.983,1.983,0,0,0,.386.047l1.11.082,4.088.228c3.453.168,8.227.337,13.5.408s10.054.031,13.51-.044l4.092-.119,1.113-.05a2.017,2.017,0,0,0,.387-.037,1.993,1.993,0,0,0-.388-.018h-1.114l-4.092.031c-3.456.026-8.23.036-13.5-.034s-10.043-.211-13.5-.33l-4.091-.141L220.624,349a2.108,2.108,0,0,0-.39.007" transform="translate(49.66 78.694)" fill="#263238"/>
        <path id="Path_2720" data-name="Path 2720" d="M244.974,350.472a5.953,5.953,0,0,1,2.2-3.49,3.629,3.629,0,0,0-2.2,3.49" transform="translate(55.23 78.237)" fill="#263238"/>
        <path id="Path_2721" data-name="Path 2721" d="M239.585,347.352c.063.042.386-.342.721-.854s.555-.962.491-1-.385.341-.721.854-.554.962-.491,1" transform="translate(54.02 77.903)" fill="#263238"/>
        <path id="Path_2722" data-name="Path 2722" d="M238.107,346.435c.05.056.408-.176.8-.52s.669-.667.62-.724-.408.176-.8.52-.67.668-.62.724" transform="translate(53.688 77.834)" fill="#263238"/>
        <path id="Path_2723" data-name="Path 2723" d="M237.188,344.48a5.148,5.148,0,0,0,2.35.056,5.146,5.146,0,0,0-2.35-.056" transform="translate(53.482 77.65)" fill="#263238"/>
        <path id="Path_2724" data-name="Path 2724" d="M236.881,343.237a3.305,3.305,0,0,0,2.661.235,7.146,7.146,0,0,0-1.331-.109,7.241,7.241,0,0,0-1.33-.126" transform="translate(53.413 77.39)" fill="#263238"/>
        <path id="Path_2725" data-name="Path 2725" d="M240.227,345.782a4.156,4.156,0,0,0,1.446.009,8.384,8.384,0,0,0,1.544-.319,4.231,4.231,0,0,0,.886-.353.777.777,0,0,0,.363-.444.568.568,0,0,0-.211-.581,2.651,2.651,0,0,0-3.289.734,2.558,2.558,0,0,0-.484.958.8.8,0,0,0-.043.39,4.087,4.087,0,0,1,.674-1.224,2.617,2.617,0,0,1,1.246-.788,2.246,2.246,0,0,1,1.722.14c.227.173.135.442-.123.591a4.309,4.309,0,0,1-.817.337,9.974,9.974,0,0,1-1.494.369c-.869.142-1.42.137-1.42.181" transform="translate(54.168 77.521)" fill="#263238"/>
        <path id="Path_2726" data-name="Path 2726" d="M240.873,346a1.418,1.418,0,0,0,.179-1,2.371,2.371,0,0,0-.381-1.061,1.451,1.451,0,0,0-1.194-.752.576.576,0,0,0-.455.663,1.566,1.566,0,0,0,.238.648,4.351,4.351,0,0,0,.672.884,2.079,2.079,0,0,0,.82.6c.026-.036-.284-.263-.678-.727a5.109,5.109,0,0,1-.594-.875c-.195-.309-.324-.859.04-.92.362-.031.727.335.945.626a2.4,2.4,0,0,1,.4.945,5.242,5.242,0,0,1,.011.975" transform="translate(53.894 77.382)" fill="#263238"/>
        <path id="Path_2727" data-name="Path 2727" d="M220.673,344.013c0,.05.646-.054,1.661.08a7.051,7.051,0,0,1,5.835,4.773c.332.969.357,1.618.407,1.612a1.282,1.282,0,0,0,.007-.453,5.958,5.958,0,0,0-.23-1.217,6.835,6.835,0,0,0-6-4.906,5.822,5.822,0,0,0-1.239.016,1.3,1.3,0,0,0-.444.1" transform="translate(49.758 77.539)" fill="#263238"/>
        <path id="Path_2728" data-name="Path 2728" d="M222.728,336.371a78.65,78.65,0,0,0-.235,9.246,38.864,38.864,0,0,0,.254-4.62,39.525,39.525,0,0,0-.018-4.626" transform="translate(50.155 75.847)" fill="#263238"/>
        <path id="Path_2729" data-name="Path 2729" d="M229.481,347.612a18.492,18.492,0,0,0,6.576.146c-.007-.078-1.477-.007-3.289-.05s-3.277-.174-3.287-.1" transform="translate(51.745 78.376)" fill="#263238"/>
        <path id="Path_2730" data-name="Path 2730" d="M225.884,347.559c-.055.054.116.313.262.652s.224.64.3.635.12-.354-.051-.744-.463-.6-.512-.543" transform="translate(50.931 78.367)" fill="#263238"/>
        <path id="Path_2731" data-name="Path 2731" d="M224.549,345.854c-.054.053.088.288.317.527s.461.391.515.338-.088-.288-.317-.527-.461-.391-.515-.338" transform="translate(50.63 77.983)" fill="#263238"/>
        <path id="Path_2732" data-name="Path 2732" d="M222.616,345.079c.015.076.314.077.643.2s.565.3.624.249-.124-.363-.533-.506-.756-.011-.734.059" transform="translate(50.196 77.782)" fill="#263238"/>
        <path id="Path_2733" data-name="Path 2733" d="M221.24,344.684c-.028.07.1.188.286.262s.359.078.387.009-.1-.187-.286-.262-.359-.078-.387-.009" transform="translate(49.885 77.71)" fill="#263238"/>
        <path id="Path_2734" data-name="Path 2734" d="M170.5,347.378l-.069-12.015,22.5-.272.287,17.576-1.393.107c-6.206.419-31.583,1.7-35.75.49-4.647-1.349,14.422-5.886,14.422-5.886" transform="translate(35.029 75.558)" fill="#e8505b"/>
        <g id="Group_291" data-name="Group 291" transform="translate(220.089 421.598)" opacity="0.4">
          <g id="Group_290" data-name="Group 290">
            <g id="Group_289" data-name="Group 289" clip-path="url(#clip-path-13)">
              <path id="Path_2735" data-name="Path 2735" d="M179.593,350.574a7.808,7.808,0,0,1,2.814-4.833,7.588,7.588,0,0,1,5.24-1.7l.081,6.289Z" transform="translate(-179.593 -344.025)"/>
            </g>
          </g>
        </g>
        <g id="Group_294" data-name="Group 294" transform="translate(190.312 425.486)" opacity="0.4">
          <g id="Group_293" data-name="Group 293">
            <g id="Group_292" data-name="Group 292" clip-path="url(#clip-path-12)">
              <path id="Path_2736" data-name="Path 2736" d="M161.2,347.2s-6.678,2.015-5.828,3.108,26.543.767,37.864-.369l-.043-.5-29.966.636s-.716-2.833-2.027-2.873" transform="translate(-155.295 -347.198)"/>
            </g>
          </g>
        </g>
        <path id="Path_2737" data-name="Path 2737" d="M193.534,349.01a2.009,2.009,0,0,1-.387.047l-1.11.082-4.088.228c-3.452.168-8.227.337-13.5.408s-10.053.031-13.51-.044l-4.092-.119-1.113-.05a2.016,2.016,0,0,1-.387-.037,1.993,1.993,0,0,1,.388-.018h1.114l4.092.031c3.456.026,8.23.036,13.5-.034s10.043-.211,13.5-.33l4.091-.141,1.113-.029a2.127,2.127,0,0,1,.391.007" transform="translate(35.028 78.694)" fill="#263238"/>
        <path id="Path_2738" data-name="Path 2738" d="M162.18,350.472a9.2,9.2,0,0,0-.789-1.942,9.077,9.077,0,0,0-1.414-1.548,3.632,3.632,0,0,1,2.2,3.49" transform="translate(36.072 78.237)" fill="#263238"/>
        <path id="Path_2739" data-name="Path 2739" d="M167.382,347.352c-.064.042-.386-.342-.721-.854s-.555-.962-.491-1,.385.341.719.854.555.962.493,1" transform="translate(37.466 77.903)" fill="#263238"/>
        <path id="Path_2740" data-name="Path 2740" d="M168.9,346.435c-.049.056-.408-.176-.8-.52s-.669-.667-.62-.724.408.176.8.52.67.668.62.724" transform="translate(37.762 77.834)" fill="#263238"/>
        <path id="Path_2741" data-name="Path 2741" d="M169.984,344.48a5.147,5.147,0,0,1-2.35.056,2.663,2.663,0,0,1,1.172-.164,2.636,2.636,0,0,1,1.179.108" transform="translate(37.799 77.65)" fill="#263238"/>
        <path id="Path_2742" data-name="Path 2742" d="M170.349,343.237a3.305,3.305,0,0,1-2.661.235,7.146,7.146,0,0,1,1.331-.109,7.248,7.248,0,0,1,1.33-.126" transform="translate(37.811 77.39)" fill="#263238"/>
        <path id="Path_2743" data-name="Path 2743" d="M167.3,345.782a4.156,4.156,0,0,1-1.446.009,8.383,8.383,0,0,1-1.544-.319,4.231,4.231,0,0,1-.886-.353.782.782,0,0,1-.363-.444.57.57,0,0,1,.211-.581,2.651,2.651,0,0,1,3.289.734,2.558,2.558,0,0,1,.484.958.8.8,0,0,1,.043.39,4.087,4.087,0,0,0-.674-1.224,2.611,2.611,0,0,0-1.246-.788,2.247,2.247,0,0,0-1.722.14c-.227.173-.135.442.123.591a4.31,4.31,0,0,0,.817.337,9.95,9.95,0,0,0,1.5.369c.868.142,1.419.137,1.419.181" transform="translate(36.763 77.521)" fill="#263238"/>
        <path id="Path_2744" data-name="Path 2744" d="M166.244,346a1.422,1.422,0,0,1-.18-1,2.374,2.374,0,0,1,.382-1.061,1.451,1.451,0,0,1,1.194-.752.576.576,0,0,1,.455.663,1.583,1.583,0,0,1-.238.648,4.351,4.351,0,0,1-.672.884,2.088,2.088,0,0,1-.82.6c-.026-.036.284-.263.678-.727a5.108,5.108,0,0,0,.594-.875c.195-.309.324-.859-.04-.92-.363-.031-.727.335-.945.626a2.4,2.4,0,0,0-.4.945,5.242,5.242,0,0,0-.011.975" transform="translate(37.443 77.382)" fill="#263238"/>
        <path id="Path_2745" data-name="Path 2745" d="M187.525,344.013c0,.05-.646-.054-1.661.08a7.051,7.051,0,0,0-5.835,4.773c-.332.969-.357,1.618-.407,1.612a1.282,1.282,0,0,1-.007-.453,5.958,5.958,0,0,1,.23-1.217,6.835,6.835,0,0,1,6-4.906,5.812,5.812,0,0,1,1.238.016,1.3,1.3,0,0,1,.444.1" transform="translate(40.498 77.539)" fill="#263238"/>
        <path id="Path_2746" data-name="Path 2746" d="M184.078,336.371a78.664,78.664,0,0,1,.235,9.246,38.858,38.858,0,0,1-.254-4.62,39.513,39.513,0,0,1,.018-4.626" transform="translate(41.493 75.847)" fill="#263238"/>
        <path id="Path_2747" data-name="Path 2747" d="M178.469,347.612a18.492,18.492,0,0,1-6.576.146c.007-.078,1.477-.007,3.289-.05s3.277-.174,3.287-.1" transform="translate(38.759 78.376)" fill="#263238"/>
        <path id="Path_2748" data-name="Path 2748" d="M180.974,347.559c.055.054-.116.313-.262.652s-.224.64-.3.635-.12-.354.051-.744.463-.6.512-.543" transform="translate(40.665 78.367)" fill="#263238"/>
        <path id="Path_2749" data-name="Path 2749" d="M182.348,345.854c.054.053-.088.288-.317.527s-.461.391-.515.338.088-.288.317-.527.461-.391.515-.338" transform="translate(40.927 77.983)" fill="#263238"/>
        <path id="Path_2750" data-name="Path 2750" d="M184.359,345.079c-.015.076-.314.077-.643.2s-.565.3-.624.249.124-.363.533-.506.756-.011.734.059" transform="translate(41.282 77.782)" fill="#263238"/>
        <path id="Path_2751" data-name="Path 2751" d="M185.626,344.684c.028.07-.1.188-.286.262s-.359.078-.387.009.1-.187.286-.262.359-.078.387-.009" transform="translate(41.703 77.71)" fill="#263238"/>
        <path id="Path_2752" data-name="Path 2752" d="M271.767,157.36,263.135,382.9l-35.044.735,5.82-195.423L194.493,385.13H161.174L204.1,157.819Z" transform="translate(36.342 35.482)" fill="#263238"/>
        <path id="Path_2753" data-name="Path 2753" d="M228.709,164.056a22.331,22.331,0,0,1-.4,3.718c-.327,2.283-.821,5.431-1.4,8.9a37.374,37.374,0,0,1-1,4.9,6.935,6.935,0,0,1-2.289,3.442,5.4,5.4,0,0,1-2.544,1.136,2.04,2.04,0,0,1-1.018-.017,6.3,6.3,0,0,0,5.309-4.734,43.517,43.517,0,0,0,.935-4.827c.582-3.471,1.145-6.607,1.582-8.871a22.282,22.282,0,0,1,.833-3.646" transform="translate(49.618 36.992)" fill="#263238"/>
        <path id="Path_2754" data-name="Path 2754" d="M221.255,165.047c.077.056-.211.418-.045,1.013a1.185,1.185,0,0,0,.586.754,1.061,1.061,0,0,0,1.385-1.216,1.189,1.189,0,0,0-.672-.679c-.569-.24-.966,0-1.011-.086-.072-.033.324-.513,1.143-.331a1.555,1.555,0,0,1,1.074.9,1.586,1.586,0,0,1-2.184,1.917,1.556,1.556,0,0,1-.751-1.18c-.076-.836.452-1.167.475-1.091" transform="translate(49.781 37.084)" fill="#263238"/>
        <path id="Path_2755" data-name="Path 2755" d="M205.9,168.716a4.868,4.868,0,0,1-.46-3.214c.189-1.831.99-3.126,1.129-3.045.165.076-.342,1.4-.515,3.11-.192,1.706.022,3.11-.154,3.149" transform="translate(46.313 36.631)" fill="#263238"/>
        <path id="Path_2756" data-name="Path 2756" d="M209.344,168.545a7.66,7.66,0,0,1,.456-6.526c.17.061-.227,1.474-.343,3.255-.132,1.778.064,3.234-.113,3.271" transform="translate(47.085 36.532)" fill="#263238"/>
        <path id="Path_2757" data-name="Path 2757" d="M238.813,169.342c-.173-.047.109-1.538.2-3.387s-.025-3.36.152-3.388a9.3,9.3,0,0,1-.349,6.776" transform="translate(53.836 36.656)" fill="#263238"/>
        <path id="Path_2758" data-name="Path 2758" d="M242.543,169.161c-.168-.071.379-1.545.5-3.439.143-1.893-.194-3.428-.017-3.475.147-.06.782,1.5.634,3.518s-.979,3.475-1.116,3.4" transform="translate(54.683 36.584)" fill="#263238"/>
        <path id="Path_2759" data-name="Path 2759" d="M212.222,91.213l21.636-1.728c.135-2.526-.047-12.3-.047-12.3s9-1.4,9.114-10.4-1.45-29.669-1.45-29.669a31.281,31.281,0,0,0-31.431,3.952L208.711,42.1Z" transform="translate(47.061 7.796)" fill="#ffbe9d"/>
        <path id="Path_2760" data-name="Path 2760" d="M231.365,69.854a20.925,20.925,0,0,1-11.734-3.335S222.4,73,231.386,72.186Z" transform="translate(49.524 14.999)" fill="#eb996e"/>
        <path id="Path_2761" data-name="Path 2761" d="M210.719,48.372c-.153-.066-6.184-1.83-5.988,4.325s6.335,4.686,6.339,4.51-.352-8.835-.352-8.835" transform="translate(46.163 10.843)" fill="#ffbe9d"/>
        <path id="Path_2762" data-name="Path 2762" d="M208.827,54.565c-.028-.018-.105.078-.283.168a1.082,1.082,0,0,1-.8.042,2.655,2.655,0,0,1-1.3-2.341,3.535,3.535,0,0,1,.251-1.544,1.24,1.24,0,0,1,.779-.849.545.545,0,0,1,.642.275c.088.169.053.293.086.3s.129-.108.071-.36a.684.684,0,0,0-.254-.377.813.813,0,0,0-.6-.138,1.508,1.508,0,0,0-1.089.99,3.648,3.648,0,0,0-.317,1.727,2.786,2.786,0,0,0,1.65,2.608,1.143,1.143,0,0,0,.974-.195c.186-.157.214-.3.192-.306" transform="translate(46.451 11.214)" fill="#eb996e"/>
        <path id="Path_2763" data-name="Path 2763" d="M234.3,48.376a1.284,1.284,0,0,1-1.239,1.3,1.229,1.229,0,0,1-1.325-1.159,1.285,1.285,0,0,1,1.238-1.3,1.229,1.229,0,0,1,1.326,1.159" transform="translate(52.253 10.646)" fill="#263238"/>
        <path id="Path_2764" data-name="Path 2764" d="M234.993,47.232c-.159.168-1.134-.553-2.516-.549-1.382-.017-2.4.695-2.548.526-.074-.075.089-.377.531-.7a3.541,3.541,0,0,1,2.039-.629,3.383,3.383,0,0,1,2,.647c.425.326.57.63.491.7" transform="translate(51.842 10.345)" fill="#263238"/>
        <path id="Path_2765" data-name="Path 2765" d="M223.248,48.641a1.284,1.284,0,0,1-1.239,1.3,1.229,1.229,0,0,1-1.325-1.158,1.285,1.285,0,0,1,1.238-1.3,1.229,1.229,0,0,1,1.326,1.159" transform="translate(49.761 10.706)" fill="#263238"/>
        <path id="Path_2766" data-name="Path 2766" d="M223.9,47.441c-.159.168-1.135-.553-2.517-.549-1.381-.016-2.4.695-2.547.526-.074-.075.087-.377.531-.7a3.523,3.523,0,0,1,2.039-.629,3.386,3.386,0,0,1,2,.646c.424.326.57.63.491.7" transform="translate(49.34 10.393)" fill="#263238"/>
        <path id="Path_2767" data-name="Path 2767" d="M227.179,57.684a9.2,9.2,0,0,1,2.246-.406c.353-.037.687-.107.748-.348a1.8,1.8,0,0,0-.237-1.047q-.5-1.281-1.044-2.689a46.156,46.156,0,0,1-2.346-7.036,46.5,46.5,0,0,1,2.907,6.83c.348.945.683,1.844,1,2.706a2.037,2.037,0,0,1,.183,1.386.883.883,0,0,1-.58.516,2.335,2.335,0,0,1-.6.083,9,9,0,0,1-2.277,0" transform="translate(51.08 10.408)" fill="#263238"/>
        <path id="Path_2768" data-name="Path 2768" d="M223.779,56.344c.224-.013.228,1.488,1.512,2.554s2.884.9,2.9,1.11c.021.094-.357.292-1.032.31a3.733,3.733,0,0,1-2.417-.842,3.257,3.257,0,0,1-1.173-2.141c-.058-.629.11-1,.213-.991" transform="translate(50.408 12.705)" fill="#263238"/>
        <path id="Path_2769" data-name="Path 2769" d="M224.416,42.961c-.136.376-1.517.2-3.14.393-1.627.163-2.936.638-3.151.3-.1-.161.132-.515.661-.879a5.505,5.505,0,0,1,4.793-.529c.6.24.9.536.837.714" transform="translate(49.179 9.453)" fill="#263238"/>
        <path id="Path_2770" data-name="Path 2770" d="M234.51,43.98c-.244.314-1.2-.012-2.342-.027-1.145-.056-2.116.211-2.339-.118-.1-.159.055-.474.479-.772a3.39,3.39,0,0,1,3.772.118c.4.322.538.646.43.8" transform="translate(51.816 9.594)" fill="#263238"/>
        <path id="Path_2771" data-name="Path 2771" d="M246.461,33.415a3.32,3.32,0,0,0-1.227-2.968,2.358,2.358,0,0,0-3.054.228,2.749,2.749,0,0,0-2.364-3.335c-1.468-.094-2.719,1.015-4.138,1.4a6.688,6.688,0,0,1-4.2-.485c-1.332-.537-2.577-1.277-3.925-1.77a11.511,11.511,0,0,0-14.721,6.759,5.109,5.109,0,0,0-5.419,2.051,8.384,8.384,0,0,0-1.283,5.906,18.75,18.75,0,0,0,1.029,4.038c0,.116-.012.229-.01.346.093,4.95.652,10.761,2.763,10.794,3.68.056,2.8-6.877,2.8-6.877,4.516-1.745,2.833-8.512,3.963-9.539s3.491-3.412,12.947,1.422A18.315,18.315,0,0,0,240.845,42.6c.078-.017.157-.028.235-.048l.054-.011c.029-.007.05-.023.078-.032a8.5,8.5,0,0,0,2.425-1.028,4.788,4.788,0,0,0,2-2.222,2.624,2.624,0,0,0-.516-2.817,5.781,5.781,0,0,0,1.341-3.028" transform="translate(46.462 5.818)" fill="#263238"/>
        <path id="Path_2772" data-name="Path 2772" d="M208.98,78.364c3.033-.581,5.986-1.679,9.551-1.83a38.282,38.282,0,0,0,23.069.013c.938.118,2.237.24,3.874.434,10.022,1.185,13.866,3.3,21.062,10.374l-.786,40.561s2.417,46.151,2.238,53.609H199.51l-.055-31.3.016-8.52-22.545,8.185,2.053-11.832s10.093-39.2,11.665-44.486c1.911-6.424,8.784-13.381,18.336-15.211" transform="translate(39.894 17.257)" fill="#3a3089"/>
        <path id="Path_2773" data-name="Path 2773" d="M187.248,128.173l33.752-4.8,6.417,11.491L196.04,149.013a13.546,13.546,0,0,1-18.1-7.207l-1.016-2.475Z" transform="translate(39.894 27.819)" fill="#3a3089"/>
        <path id="Path_2774" data-name="Path 2774" d="M243.248,119.589l-.733-.55a16.856,16.856,0,0,0-13.282-3.07,23.126,23.126,0,0,0-10.343,4.857l-5.783,4.761,6.151,11.018,4.185-5.858s3.9,5.3,4.6,4.743a8.963,8.963,0,0,0,1.534-2.232l-2.789-3.906,6.695,1.395,9.763-4.463-4.184-5.3,4.184,1.395Z" transform="translate(48.052 26.082)" fill="#ffbe9d"/>
        <path id="Path_2775" data-name="Path 2775" d="M242.58,79.006s9.537,3.249,13.543,12.423c2.613,5.985,6.455,34.793,6.455,34.793l4.844,9.343a15.75,15.75,0,0,1,1.768,7.251v1.424a15.755,15.755,0,0,1-14.36,15.691c-4.835.433-10.683.623-11.933-.805-2.2-2.518-5.51-9.288-5.51-9.288l14.1-7.491L245.417,131.1Z" transform="translate(53.527 17.815)" fill="#3a3089"/>
        <path id="Path_2776" data-name="Path 2776" d="M196.672,148.012a2.683,2.683,0,0,1,.545-.305l1.616-.786,6.056-2.83,20.681-9.44-.14.423-3.96-7.08-2.46-4.409.3.154-24.725,2.428-7.349.658-1.985.148a3.139,3.139,0,0,1-.694.013,3.074,3.074,0,0,1,.681-.127l1.974-.257,7.331-.843,24.7-2.629.2-.021.1.176c.788,1.411,1.62,2.9,2.463,4.407,1.353,2.429,2.674,4.8,3.949,7.086l.162.29-.3.134-20.768,9.246-6.131,2.665-1.659.691a2.694,2.694,0,0,1-.589.206" transform="translate(41.615 27.759)" fill="#263238"/>
        <path id="Path_2777" data-name="Path 2777" d="M199.389,129.528c-.17,0-.309-6.034-.309-13.477s.138-13.477.309-13.477.309,6.033.309,13.477-.138,13.477-.309,13.477" transform="translate(44.89 23.129)" fill="#263238"/>
        <path id="Path_2778" data-name="Path 2778" d="M248.247,131.957a3.044,3.044,0,0,1,1.026-.162,9.385,9.385,0,0,1,2.847.172,3.374,3.374,0,0,1,1.786,1.01,4.653,4.653,0,0,1,.933,2.15,4.987,4.987,0,0,1-.23,2.571,4.791,4.791,0,0,1-1.707,2.191,12.749,12.749,0,0,1-4.888,1.743,22.164,22.164,0,0,1-4.185.407,7.571,7.571,0,0,1-3.8-.662,20,20,0,0,0,3.788.225,25.349,25.349,0,0,0,4.081-.528,12.864,12.864,0,0,0,4.638-1.686,4.4,4.4,0,0,0,.973-6.085,2.991,2.991,0,0,0-1.507-.915,11.353,11.353,0,0,0-2.725-.352,3.8,3.8,0,0,1-1.031-.078" transform="translate(54.123 29.709)" fill="#263238"/>
        <path id="Path_2779" data-name="Path 2779" d="M253.847,146.44a7.134,7.134,0,0,1-2.424.287,15.388,15.388,0,0,1-5.831-.967,12.6,12.6,0,0,1-2.9-1.544,6.981,6.981,0,0,1-1.793-2.026,5.324,5.324,0,0,1-.865-2.3c.1-.042.418.846,1.233,2.06a7.244,7.244,0,0,0,1.763,1.8,13.681,13.681,0,0,0,2.789,1.426,18.206,18.206,0,0,0,5.614,1.107,14.655,14.655,0,0,1,2.415.149" transform="translate(54.121 31.544)" fill="#263238"/>
        <path id="Path_2780" data-name="Path 2780" d="M259.09,121.377a11.709,11.709,0,0,1-1.665,2c-1.085,1.19-2.612,2.8-4.325,4.561s-3.289,3.326-4.452,4.44a11.064,11.064,0,0,1-1.973,1.713,10.985,10.985,0,0,1,1.661-2.018c1.082-1.191,2.608-2.808,4.322-4.566,3.424-3.511,6.314-6.273,6.433-6.13" transform="translate(55.621 27.368)" fill="#263238"/>
        <path id="Path_2781" data-name="Path 2781" d="M244.319,119.077c-.17,0-.309-3.45-.309-7.7s.138-7.7.309-7.7.309,3.449.309,7.7-.138,7.7-.309,7.7" transform="translate(55.021 23.376)" fill="#263238"/>
        <path id="Path_2782" data-name="Path 2782" d="M266.048,89.318c0,.17-17.284.309-38.6.309s-38.6-.138-38.6-.309,17.279-.309,38.6-.309,38.6.138,38.6.309" transform="translate(42.582 20.07)" fill="#e0e0e0"/>
        <path id="Path_2783" data-name="Path 2783" d="M268.436,94.334c0,.17-18.214.309-40.679.309s-40.682-.138-40.682-.309,18.211-.309,40.682-.309,40.679.138,40.679.309" transform="translate(42.183 21.201)" fill="#e0e0e0"/>
        <path id="Path_2784" data-name="Path 2784" d="M262.376,84.744c0,.17-15.868.309-35.435.309s-35.439-.138-35.439-.309,15.863-.309,35.439-.309,35.435.138,35.435.309" transform="translate(43.181 19.039)" fill="#e0e0e0"/>
        <path id="Path_2785" data-name="Path 2785" d="M264.749,160.467c0,.17-15.532.309-34.687.309s-34.691-.138-34.691-.309,15.529-.309,34.691-.309,34.687.138,34.687.309" transform="translate(44.053 36.113)" fill="#e0e0e0"/>
        <path id="Path_2786" data-name="Path 2786" d="M264.2,157.248c0,.17-15.325.309-34.223.309s-34.228-.138-34.228-.309,15.321-.309,34.228-.309,34.223.138,34.223.309" transform="translate(44.138 35.387)" fill="#e0e0e0"/>
        <path id="Path_2787" data-name="Path 2787" d="M263.589,153.083c0,.17-15.272.309-34.108.309s-34.11-.138-34.11-.309,15.268-.309,34.11-.309,34.108.138,34.108.309" transform="translate(44.053 34.448)" fill="#e0e0e0"/>
        <path id="Path_2788" data-name="Path 2788" d="M211.425,138.47a6.152,6.152,0,0,1-1.729-1.613,16.334,16.334,0,0,1-3.748-10.61,6.154,6.154,0,0,1,.332-2.341c.2,0-.312,3.642,1.181,7.773,1.433,4.152,4.122,6.664,3.963,6.79" transform="translate(46.437 27.939)" fill="#e0e0e0"/>
        <path id="Path_2789" data-name="Path 2789" d="M208.917,140.266a7.125,7.125,0,0,1-1.869-1.779,17.88,17.88,0,0,1-4.037-11.605,7.132,7.132,0,0,1,.36-2.556c.207,0-.4,3.982,1.213,8.515,1.545,4.554,4.5,7.3,4.332,7.426" transform="translate(45.775 28.033)" fill="#e0e0e0"/>
        <path id="Path_2790" data-name="Path 2790" d="M206.495,141.687a7.268,7.268,0,0,1-2.1-1.779,16.2,16.2,0,0,1-4.044-12.371,7.262,7.262,0,0,1,.643-2.675c.1.025-.132,1.044-.207,2.707a18.05,18.05,0,0,0,3.94,12.056c1.043,1.3,1.837,1.98,1.767,2.062" transform="translate(45.157 28.154)" fill="#e0e0e0"/>
        <path id="Path_2791" data-name="Path 2791" d="M240.848,143.118c.039-.042.355.276,1.04.648a7.467,7.467,0,0,0,3.172.8,26.854,26.854,0,0,0,4.931-.32,7.711,7.711,0,0,0,5.172-2.527,7.313,7.313,0,0,0,1.536-5.509,7.826,7.826,0,0,0-2.137-4.255,11.753,11.753,0,0,0-3.779-2.46,3.289,3.289,0,0,1,1.213.3,8.634,8.634,0,0,1,2.875,1.848,8.041,8.041,0,0,1,2.391,4.48,7.753,7.753,0,0,1-1.62,5.982,6.722,6.722,0,0,1-2.638,1.96,11.385,11.385,0,0,1-2.93.74,24.539,24.539,0,0,1-5.047.192,7.062,7.062,0,0,1-3.261-1.025,2.6,2.6,0,0,1-.917-.855" transform="translate(54.307 29.197)" fill="#e0e0e0"/>
        <path id="Path_2792" data-name="Path 2792" d="M252.835,127.911c0-.021.129-.033.377-.033a4.042,4.042,0,0,1,1.072.181,6.816,6.816,0,0,1,3.167,2.387,16.213,16.213,0,0,1,2.637,5.263,9.794,9.794,0,0,1,.388,3.5,7.7,7.7,0,0,1-1.265,3.585,10.947,10.947,0,0,1-5.821,4.229,17.37,17.37,0,0,1-5.843.672,33.248,33.248,0,0,1-3.922-.418,6.016,6.016,0,0,1-1.412-.309c.012-.116,2.051.219,5.343.289a17.848,17.848,0,0,0,5.657-.776,10.586,10.586,0,0,0,5.482-4.027,7.193,7.193,0,0,0,1.178-3.3,9.4,9.4,0,0,0-.335-3.3,16.624,16.624,0,0,0-2.435-5.15,6.976,6.976,0,0,0-2.9-2.426c-.847-.322-1.374-.314-1.369-.375" transform="translate(54.616 28.835)" fill="#e0e0e0"/>
        <path id="Path_2793" data-name="Path 2793" d="M233.243,118.959l-21.48,26.015,1.647,1.784,34.86-5.314,17.287-26.015-1.6-1.444Z" transform="translate(47.749 25.702)" fill="#263238"/>
        <path id="Path_2794" data-name="Path 2794" d="M254.009,123.646h0a3.313,3.313,0,0,0-3.1,2.116c-.517,1.346-1.275,2.918-2.113,3.376-1.549.844-4.224,1.518-5.634.83s-7.04-5.759-8.027-5.2-1.831,1.831-.844,2.958,6.2,4.506,5.211,5.632-11.971-3.832-13.66-3.395-2.676,1.477-1.69,2.154,8.45,3.494,8.871,4.479c0,0-11.266-2.957-11.689-2.252s-1.126,1.831,0,2.252,10.844,2.958,11.689,3.38a20.478,20.478,0,0,0,4.343,1.268,46.23,46.23,0,0,1,4.538,1.439,9.945,9.945,0,0,0,7.007-.187l1.141-.464a4.473,4.473,0,0,0,2.777-4.411l-.23-3.841,1.229-3.169Z" transform="translate(49.771 27.88)" fill="#ffbe9d"/>
        <path id="Path_2795" data-name="Path 2795" d="M265.278,115.272a2.68,2.68,0,0,1-.643.157l-1.864.331-6.87,1.1-10.2,1.558-6.018.911a11.512,11.512,0,0,0-5.835,2.363,39.178,39.178,0,0,0-4.25,4.882q-1.982,2.472-3.814,4.755l-6.484,8.029c-1.821,2.221-3.315,4.042-4.413,5.379l-1.224,1.444a2.692,2.692,0,0,1-.46.477,2.606,2.606,0,0,1,.363-.554l1.134-1.516,4.259-5.5,6.381-8.111c1.208-1.525,2.473-3.123,3.784-4.778a38.471,38.471,0,0,1,4.326-4.977,12.03,12.03,0,0,1,6.131-2.488l6.037-.877,10.221-1.426,6.9-.909,1.88-.216a2.7,2.7,0,0,1,.662-.034" transform="translate(48.074 25.99)" fill="#455a64"/>
        <path id="Path_2796" data-name="Path 2796" d="M242.608,119.922a2.93,2.93,0,0,0-.966.784,1.007,1.007,0,0,0-.043,1.169,1.079,1.079,0,0,0,1.438.023,1.406,1.406,0,0,0,.559-.833.989.989,0,0,0-.3-.931.765.765,0,0,0-.945-.038" transform="translate(54.439 27.041)" fill="#fafafa"/>
      </g>
    </g>
    <rect id="Rectangle_226" data-name="Rectangle 226" width="56.274" height="113.497" transform="translate(10.646 176.564)" fill="#455a64"/>
    <g id="Group_316" data-name="Group 316">
      <g id="Group_315" data-name="Group 315" clip-path="url(#clip-path)">
        <path id="Path_2797" data-name="Path 2797" d="M12.436,257.307h0a8.781,8.781,0,0,1-8.781-8.781V152.858a8.781,8.781,0,1,1,17.561,0v95.669a8.781,8.781,0,0,1-8.781,8.781" transform="translate(0.824 32.487)" fill="#455a64"/>
        <path id="Path_2798" data-name="Path 2798" d="M14.566,147.8a.938.938,0,0,1,.05.282c.023.225.05.5.085.831q.1,1.178.262,3.2c.2,2.838.491,6.846.844,11.772.656,10,1.554,23.707,2.547,38.854.94,15.184,1.833,28.913,2.317,38.881a30.366,30.366,0,0,1-1.46,11.7,15.294,15.294,0,0,1-1.426,2.888l-.482.685c-.112.152-.173.227-.181.221a21.78,21.78,0,0,0,1.855-3.879,31.192,31.192,0,0,0,1.244-11.6c-.645-9.994-1.528-23.7-2.5-38.855-.919-15.152-1.752-28.869-2.359-38.866-.27-4.931-.488-8.944-.643-11.784q-.09-2.024-.142-3.206c-.009-.335-.015-.609-.021-.836a.96.96,0,0,1,.015-.286" transform="translate(3.281 33.327)" fill="#263238"/>
        <rect id="Rectangle_227" data-name="Rectangle 227" width="9.071" height="108.683" transform="translate(61.875 304.15)" fill="#455a64"/>
        <path id="Path_2799" data-name="Path 2799" d="M129.741,250.778H0A14.083,14.083,0,0,1,14.083,236.7H115.658a14.083,14.083,0,0,1,14.083,14.083" transform="translate(0 53.371)" fill="#455a64"/>
        <path id="Path_2800" data-name="Path 2800" d="M63.614,248.476c0,.185-3.564.335-7.958.335s-7.96-.15-7.96-.335,3.562-.335,7.96-.335,7.958.151,7.958.335" transform="translate(10.755 55.952)" fill="#263238"/>
        <path id="Path_2801" data-name="Path 2801" d="M101.245,352.246H99.962a38.6,38.6,0,1,0-77.2,0H21.483a39.881,39.881,0,1,1,79.762,0" transform="translate(4.844 70.433)" fill="#455a64"/>
        <path id="Path_2802" data-name="Path 2802" d="M29.086,345.416a5.98,5.98,0,1,1-5.979-5.98,5.98,5.98,0,0,1,5.979,5.98" transform="translate(3.862 76.538)" fill="#263238"/>
        <path id="Path_2803" data-name="Path 2803" d="M93.335,345.641a5.98,5.98,0,1,1-5.979-5.979,5.979,5.979,0,0,1,5.979,5.979" transform="translate(18.349 76.589)" fill="#455a64"/>
        <path id="Path_2804" data-name="Path 2804" d="M100.518,336.935c0,.185-17.354.335-38.757.335S23,337.12,23,336.935s17.35-.335,38.761-.335,38.757.151,38.757.335" transform="translate(5.186 75.898)" fill="#455a64"/>
        <path id="Path_2805" data-name="Path 2805" d="M51.713,236.535a11.53,11.53,0,0,1-1.96.14l-5.339.141c-4.51.091-10.738.17-17.616.219l-9.7.064a32.8,32.8,0,0,0-7.809.71,12.853,12.853,0,0,0-4.721,2.248c-1,.752-1.445,1.3-1.5,1.246-.017-.015.089-.154.308-.407a7.967,7.967,0,0,1,1.034-1.034,12.234,12.234,0,0,1,4.76-2.494,31.309,31.309,0,0,1,7.914-.863c2.975-.077,6.261-.081,9.7-.114,6.884-.05,13.118-.058,17.629-.032l5.343.065a11.442,11.442,0,0,1,1.958.112" transform="translate(0.691 53.292)" fill="#263238"/>
        <path id="Path_2806" data-name="Path 2806" d="M41.9,153.962h0c6.751,0,12.359-4.409,12.452-24.93.018-4.129-.116-7.7-.116-7.7S63.976,120.446,64.69,111s.174-31.372.174-31.372a33.768,33.768,0,0,0-33.725,2.227l-1.5.993.462,46.44c.065,6.515,5.145,24.676,11.794,24.676" transform="translate(6.683 17.168)" fill="#b78876"/>
        <path id="Path_2807" data-name="Path 2807" d="M52,113.691a22.806,22.806,0,0,1-12.359-4.263s2.544,6.984,12.227,6.714Z" transform="translate(8.939 24.674)" fill="#aa6550"/>
        <path id="Path_2808" data-name="Path 2808" d="M56.995,91.639a1.337,1.337,0,0,1-1.3,1.337A1.285,1.285,0,0,1,54.3,91.782a1.338,1.338,0,0,1,1.3-1.338,1.287,1.287,0,0,1,1.4,1.2" transform="translate(12.243 20.393)" fill="#263238"/>
        <path id="Path_2809" data-name="Path 2809" d="M57.723,90.459c-.168.173-1.192-.57-2.648-.566-1.453-.017-2.522.717-2.68.542-.077-.077.093-.388.559-.721a3.758,3.758,0,0,1,2.145-.648,3.612,3.612,0,0,1,2.108.667c.449.337.6.65.517.727" transform="translate(11.81 20.083)" fill="#263238"/>
        <path id="Path_2810" data-name="Path 2810" d="M45.363,91.913a1.337,1.337,0,0,1-1.3,1.337,1.285,1.285,0,0,1-1.395-1.195,1.338,1.338,0,0,1,1.3-1.338,1.286,1.286,0,0,1,1.4,1.2" transform="translate(9.62 20.455)" fill="#263238"/>
        <path id="Path_2811" data-name="Path 2811" d="M46.048,90.677c-.168.173-1.194-.57-2.648-.566-1.453-.017-2.522.717-2.68.542-.077-.077.092-.388.559-.721a3.755,3.755,0,0,1,2.145-.648,3.615,3.615,0,0,1,2.108.667c.446.337.6.65.517.727" transform="translate(9.178 20.132)" fill="#263238"/>
        <path id="Path_2812" data-name="Path 2812" d="M49.5,101.237a9.826,9.826,0,0,1,2.364-.418c.371-.038.723-.11.787-.358a1.827,1.827,0,0,0-.249-1.08q-.524-1.322-1.1-2.773c-1.526-3.949-2.631-7.195-2.468-7.254s1.532,3.094,3.059,7.042c.366.974.718,1.9,1.053,2.79a2.065,2.065,0,0,1,.192,1.429.926.926,0,0,1-.61.532,2.542,2.542,0,0,1-.632.086,9.649,9.649,0,0,1-2.4,0" transform="translate(11.008 20.148)" fill="#263238"/>
        <path id="Path_2813" data-name="Path 2813" d="M45.923,99.855c.237-.012.24,1.536,1.592,2.635s3.034.928,3.047,1.145c.022.1-.375.3-1.086.32a3.984,3.984,0,0,1-2.543-.869,3.339,3.339,0,0,1-1.234-2.207c-.06-.647.116-1.031.224-1.023" transform="translate(10.302 22.516)" fill="#263238"/>
        <path id="Path_2814" data-name="Path 2814" d="M46.593,86.057c-.143.387-1.6.2-3.3.406-1.712.168-3.089.658-3.316.31-.1-.167.138-.531.7-.907a5.889,5.889,0,0,1,5.043-.545c.627.248.942.553.881.737" transform="translate(9.008 19.163)" fill="#263238"/>
        <path id="Path_2815" data-name="Path 2815" d="M57.214,87.108c-.256.324-1.259-.012-2.464-.028-1.2-.058-2.227.218-2.462-.121-.1-.164.058-.489.5-.8a3.629,3.629,0,0,1,3.968.12c.426.333.566.667.453.825" transform="translate(11.783 19.308)" fill="#263238"/>
        <path id="Path_2816" data-name="Path 2816" d="M65.833,79.728A9.658,9.658,0,0,0,64.363,75.6a4.111,4.111,0,0,0-.5-4.239,4.17,4.17,0,0,0-5.711-.306c-.025-.007-.05-.02-.076-.027a2.235,2.235,0,0,0-.684-2.683,5.232,5.232,0,0,0-3.343-.79c-2.173.037-7.294,1.757-11.229,3.229-.25.047-.51.086-.756.135A20.665,20.665,0,0,0,33.085,74.8c-2.96,2.523-4.613,6.175-5.616,9.933s-1.021,7.7-.251,14.081c1.18-1.045,5.322-3.669,5.941-2.218a8.679,8.679,0,0,1,.317,2.653,2.279,2.279,0,0,0,1.353,2.129,1.8,1.8,0,0,0,1.864-.817,4.2,4.2,0,0,0,.592-2.062c.235-2.942-.5-5.924-.032-8.838a10.848,10.848,0,0,1,12.842-8.922c1.766.354,3.474,1.151,5.274,1.081,2.586-.1,5.232-1.958,7.565-.841.462.222.925.437,1.368.7.88.518,1.316,1.031,1.532.565a8.828,8.828,0,0,0,0-2.51" transform="translate(6.015 15.233)" fill="#263238"/>
        <path id="Path_2817" data-name="Path 2817" d="M32.7,90.146c-.179-.066-6.105-.821-5.545,6.036s7.442,4.036,7.439,3.838S32.7,90.146,32.7,90.146" transform="translate(6.115 20.314)" fill="#b78876"/>
        <path id="Path_2818" data-name="Path 2818" d="M31.924,97.347c-.033-.02-.115.093-.314.2a1.246,1.246,0,0,1-.909.089A2.963,2.963,0,0,1,29.088,95.1a3.872,3.872,0,0,1,.2-1.737,1.393,1.393,0,0,1,.842-.989.628.628,0,0,1,.746.271c.109.185.076.325.114.333.021.016.141-.126.061-.4a.763.763,0,0,0-.31-.408.937.937,0,0,0-.689-.123A1.7,1.7,0,0,0,28.869,93.2a3.988,3.988,0,0,0-.267,1.945,3.118,3.118,0,0,0,2.021,2.821,1.323,1.323,0,0,0,1.1-.268c.2-.186.228-.342.2-.353" transform="translate(6.444 20.749)" fill="#aa6550"/>
        <path id="Path_2819" data-name="Path 2819" d="M89.225,329.949l5.343-7.487-20.562-14.4-8.515,11.554,1.179,1.012c5.279,4.455,27.152,22.292,31.657,23.977,5.026,1.879-9.1-14.658-9.1-14.658" transform="translate(14.767 69.464)" fill="#e8505b"/>
        <g id="Group_299" data-name="Group 299" transform="translate(80.49 383.271)" opacity="0.5">
          <g id="Group_298" data-name="Group 298">
            <g id="Group_297" data-name="Group 297" clip-path="url(#clip-path-16)">
              <path id="Path_2820" data-name="Path 2820" d="M72.8,323.869a8.6,8.6,0,0,0,.824-6.115,7.4,7.4,0,0,0-3.891-5L65.68,318.3Z" transform="translate(-65.68 -312.75)" fill="#fff"/>
            </g>
          </g>
        </g>
        <g id="Group_302" data-name="Group 302" transform="translate(80.259 388.67)" opacity="0.5">
          <g id="Group_301" data-name="Group 301">
            <g id="Group_300" data-name="Group 300" clip-path="url(#clip-path-17)">
              <path id="Path_2821" data-name="Path 2821" d="M95.91,336.269s4.673,6.164,3.207,6.564-24.234-16.811-33.625-25.265l.36-.412,26.391,20.3s2.468-2.013,3.667-1.184" transform="translate(-65.492 -317.156)" fill="#fff"/>
            </g>
          </g>
        </g>
        <path id="Path_2822" data-name="Path 2822" d="M65.539,316.953a2.32,2.32,0,0,0,.315.3l.941.8,3.509,2.892c2.98,2.423,7.141,5.714,11.811,9.252s8.973,6.648,12.111,8.859l3.737,2.592,1.028.688a2.333,2.333,0,0,0,.369.223,2.265,2.265,0,0,0-.336-.272l-1-.733-3.68-2.669c-3.108-2.254-7.384-5.39-12.055-8.924s-8.847-6.8-11.859-9.179l-3.567-2.819c-.362-.282-.683-.532-.975-.759a2.473,2.473,0,0,0-.353-.25" transform="translate(14.778 71.468)" fill="#263238"/>
        <path id="Path_2823" data-name="Path 2823" d="M87.131,334.284a9.918,9.918,0,0,1,1.958-1.184,10.155,10.155,0,0,1,2.263-.425,3.357,3.357,0,0,0-2.376.146,3.236,3.236,0,0,0-1.846,1.463" transform="translate(19.646 74.982)" fill="#263238"/>
        <path id="Path_2824" data-name="Path 2824" d="M84.133,328.1a2.612,2.612,0,0,0,1.2-.275c.63-.229,1.116-.478,1.087-.555a2.61,2.61,0,0,0-1.2.275c-.63.229-1.116.478-1.087.555" transform="translate(18.971 73.79)" fill="#263238"/>
        <path id="Path_2825" data-name="Path 2825" d="M83.331,326.313c.009.082.478.114,1.05.072s1.029-.145,1.022-.227-.478-.115-1.05-.072-1.029.145-1.022.227" transform="translate(18.79 73.523)" fill="#263238"/>
        <path id="Path_2826" data-name="Path 2826" d="M83.637,324.136c-.05.065.371.475.942.917s1.074.746,1.124.681-.371-.475-.942-.917-1.074-.746-1.124-.681" transform="translate(18.858 73.086)" fill="#263238"/>
        <path id="Path_2827" data-name="Path 2827" d="M84.154,322.857a3.742,3.742,0,0,0,2.228,1.958c.04-.076-.516-.437-1.12-.972s-1.038-1.036-1.108-.987" transform="translate(18.974 72.799)" fill="#263238"/>
        <path id="Path_2828" data-name="Path 2828" d="M85.749,327.055a4.678,4.678,0,0,0,1.287.961,9.594,9.594,0,0,0,1.587.737,4.7,4.7,0,0,0,1.018.275.85.85,0,0,0,.613-.15.611.611,0,0,0,.185-.648,2.984,2.984,0,0,0-3.415-1.525,2.787,2.787,0,0,0-1.05.522c-.214.176-.3.3-.289.314a4.447,4.447,0,0,1,1.393-.629,2.9,2.9,0,0,1,1.621.13,2.532,2.532,0,0,1,1.449,1.256c.092.3-.164.477-.49.438a4.835,4.835,0,0,1-.949-.243,11.252,11.252,0,0,1-1.574-.662c-.868-.446-1.359-.815-1.386-.776" transform="translate(19.32 73.645)" fill="#263238"/>
        <path id="Path_2829" data-name="Path 2829" d="M86.06,327.865c.007.027.44-.151.806-.76a2.551,2.551,0,0,0,.344-1.183,1.619,1.619,0,0,0-.583-1.446.627.627,0,0,0-.833.282,1.678,1.678,0,0,0-.206.725,4.777,4.777,0,0,0,.031,1.217,2.335,2.335,0,0,0,.349,1.063c.045-.013-.086-.418-.138-1.083a5.47,5.47,0,0,1,.033-1.158c.025-.4.265-.967.63-.781a1.442,1.442,0,0,1,.441,1.17A2.578,2.578,0,0,1,86.679,327a5.567,5.567,0,0,1-.619.863" transform="translate(19.293 73.149)" fill="#263238"/>
        <path id="Path_2830" data-name="Path 2830" d="M69.169,312.842c-.029.048.612.379,1.434,1.164a8.162,8.162,0,0,1,2.234,3.728,7.918,7.918,0,0,1-.094,4.3c-.328,1.067-.724,1.652-.675,1.681a1.406,1.406,0,0,0,.3-.395,6.344,6.344,0,0,0,.58-1.217,7.572,7.572,0,0,0,.183-4.441,7.823,7.823,0,0,0-2.382-3.81,6.7,6.7,0,0,0-1.116-.8,1.474,1.474,0,0,0-.46-.208" transform="translate(15.596 70.541)" fill="#263238"/>
        <path id="Path_2831" data-name="Path 2831" d="M74.712,321.817a14.437,14.437,0,0,0,2.7,2.484,14.476,14.476,0,0,0,3.089,1.975c.045-.074-1.316-.98-2.908-2.211s-2.819-2.311-2.879-2.249" transform="translate(16.846 72.564)" fill="#263238"/>
        <path id="Path_2832" data-name="Path 2832" d="M71.59,319.4c-.085.011-.1.35-.186.744s-.212.708-.14.756.336-.232.434-.687-.029-.827-.108-.812" transform="translate(16.064 72.02)" fill="#263238"/>
        <path id="Path_2833" data-name="Path 2833" d="M71.447,317.028c-.082.01-.108.311-.056.672s.159.646.243.635.107-.31.055-.672-.159-.645-.241-.635" transform="translate(16.092 71.485)" fill="#263238"/>
        <path id="Path_2834" data-name="Path 2834" d="M70.219,315.062c-.036.077.23.275.447.6s.313.635.4.63.123-.4-.152-.8-.668-.507-.694-.431" transform="translate(15.833 71.037)" fill="#263238"/>
        <path id="Path_2835" data-name="Path 2835" d="M69.239,313.819c-.07.043-.032.229.087.418s.27.305.341.262.031-.229-.087-.417-.271-.306-.341-.264" transform="translate(15.605 70.759)" fill="#263238"/>
        <g id="Group_305" data-name="Group 305" transform="translate(85.356 380.499)" opacity="0.3">
          <g id="Group_304" data-name="Group 304">
            <g id="Group_303" data-name="Group 303" clip-path="url(#clip-path-18)">
              <path id="Path_2836" data-name="Path 2836" d="M69.65,312.155l20.783,14.326.6-.8-20.2-15.192Z" transform="translate(-69.65 -310.489)"/>
            </g>
          </g>
        </g>
        <path id="Path_2837" data-name="Path 2837" d="M171.044,346.885l-1.923-8.772-23.892,5.463,2.793,13.732,1.5-.191c6.684-.906,33.923-5.066,38.093-7.225,4.652-2.409-16.575-3.006-16.575-3.006" transform="translate(32.747 76.239)" fill="#e8505b"/>
        <g id="Group_308" data-name="Group 308" transform="translate(179.364 426.163)" opacity="0.5">
          <g id="Group_307" data-name="Group 307">
            <g id="Group_306" data-name="Group 306" clip-path="url(#clip-path-19)">
              <path id="Path_2838" data-name="Path 2838" d="M156.423,353.288a8.394,8.394,0,0,0-3.89-4.6,7.217,7.217,0,0,0-6.172-.458l1.365,6.566Z" transform="translate(-146.362 -347.751)" fill="#fff"/>
            </g>
          </g>
        </g>
        <g id="Group_311" data-name="Group 311" transform="translate(180.708 423.764)" opacity="0.5">
          <g id="Group_310" data-name="Group 310">
            <g id="Group_309" data-name="Group 309" clip-path="url(#clip-path-20)">
              <path id="Path_2839" data-name="Path 2839" d="M180.98,345.793s7.524.652,6.854,1.974-28.043,6.542-40.315,7.809l-.061-.532,31.979-5.822s.158-3.105,1.543-3.429" transform="translate(-147.458 -345.793)" fill="#fff"/>
            </g>
          </g>
        </g>
        <path id="Path_2840" data-name="Path 2840" d="M147.148,354.81a2.337,2.337,0,0,0,.42-.034c.359-.048.754-.1,1.2-.156l4.392-.648c3.706-.571,8.814-1.429,14.434-2.5s10.69-2.143,14.347-2.969l4.324-1.009,1.172-.294a2.232,2.232,0,0,0,.4-.121,2.26,2.26,0,0,0-.417.064l-1.183.241-4.343.918c-3.667.775-8.738,1.817-14.355,2.886s-10.718,1.955-14.413,2.578l-4.377.738-1.189.21a2.29,2.29,0,0,0-.412.092" transform="translate(33.18 78.262)" fill="#263238"/>
        <path id="Path_2841" data-name="Path 2841" d="M173.63,349.647a9.687,9.687,0,0,1,.425-2.194,9.877,9.877,0,0,1,1.174-1.917,3.264,3.264,0,0,0-1.45,1.816,3.165,3.165,0,0,0-.15,2.294" transform="translate(39.12 77.912)" fill="#263238"/>
        <path id="Path_2842" data-name="Path 2842" d="M167.289,347.526c.076.029.337-.439.585-1.045s.385-1.123.309-1.151-.337.439-.583,1.045-.386,1.121-.31,1.151" transform="translate(37.716 77.867)" fill="#263238"/>
        <path id="Path_2843" data-name="Path 2843" d="M165.547,346.9c.065.048.4-.272.74-.713s.57-.841.5-.888-.4.271-.74.713-.57.839-.5.888" transform="translate(37.326 77.858)" fill="#263238"/>
        <path id="Path_2844" data-name="Path 2844" d="M164.2,345.075a5.675,5.675,0,0,0,2.51-.45,5.675,5.675,0,0,0-2.51.45" transform="translate(37.024 77.699)" fill="#263238"/>
        <path id="Path_2845" data-name="Path 2845" d="M163.612,343.84a2.5,2.5,0,0,0,1.472.131,2.523,2.523,0,0,0,1.406-.462,7.875,7.875,0,0,0-1.437.174,7.99,7.99,0,0,0-1.44.157" transform="translate(36.892 77.451)" fill="#263238"/>
        <path id="Path_2846" data-name="Path 2846" d="M167.63,345.827a4.639,4.639,0,0,0,1.539-.3,9.4,9.4,0,0,0,1.572-.668,4.6,4.6,0,0,0,.866-.558.834.834,0,0,0,.292-.542.6.6,0,0,0-.348-.559,2.913,2.913,0,0,0-3.339,1.475,2.732,2.732,0,0,0-.311,1.1.837.837,0,0,0,.038.414,4.345,4.345,0,0,1,.457-1.422,2.828,2.828,0,0,1,1.156-1.088,2.477,2.477,0,0,1,1.86-.228c.278.131.237.431,0,.642a4.71,4.71,0,0,1-.8.527,11,11,0,0,1-1.509.707c-.892.337-1.48.45-1.471.5" transform="translate(37.798 77.361)" fill="#263238"/>
        <path id="Path_2847" data-name="Path 2847" d="M168.421,345.812a1.494,1.494,0,0,0-.022-1.082,2.482,2.482,0,0,0-.631-1.022,1.577,1.577,0,0,0-1.429-.526.613.613,0,0,0-.342.788,1.669,1.669,0,0,0,.39.625,4.726,4.726,0,0,0,.9.775,2.255,2.255,0,0,0,1,.442c.02-.042-.359-.212-.875-.609a5.381,5.381,0,0,1-.817-.783c-.272-.278-.527-.824-.153-.966a1.405,1.405,0,0,1,1.137.447,2.481,2.481,0,0,1,.623.9,5.384,5.384,0,0,1,.219,1.012" transform="translate(37.421 77.375)" fill="#263238"/>
        <path id="Path_2848" data-name="Path 2848" d="M146.548,348.166c.016.051.674-.195,1.782-.277a7.979,7.979,0,0,1,4.162.825,7.724,7.724,0,0,1,3.053,2.882c.558.937.722,1.608.774,1.591a1.366,1.366,0,0,0-.089-.474,6.162,6.162,0,0,0-.5-1.217,7.38,7.38,0,0,0-3.1-3.039,7.63,7.63,0,0,0-4.319-.771,6.6,6.6,0,0,0-1.312.284,1.422,1.422,0,0,0-.451.2" transform="translate(33.044 78.386)" fill="#263238"/>
        <path id="Path_2849" data-name="Path 2849" d="M156.677,350.166a20.458,20.458,0,0,0,7.018-1.271c-.023-.081-1.571.311-3.5.659s-3.52.527-3.513.611" transform="translate(35.328 78.668)" fill="#263238"/>
        <path id="Path_2850" data-name="Path 2850" d="M152.843,350.659c-.048.069.19.3.417.623s.374.616.456.6.053-.395-.213-.763-.619-.521-.659-.455" transform="translate(34.462 79.065)" fill="#263238"/>
        <path id="Path_2851" data-name="Path 2851" d="M151.062,349.174c-.047.066.154.281.45.48s.571.306.619.24-.156-.281-.45-.479-.572-.308-.619-.241" transform="translate(34.061 78.729)" fill="#263238"/>
        <path id="Path_2852" data-name="Path 2852" d="M148.841,348.8c.032.076.35.013.725.067s.664.19.717.124-.21-.35-.675-.411-.805.152-.767.219" transform="translate(33.561 78.597)" fill="#263238"/>
        <path id="Path_2853" data-name="Path 2853" d="M147.3,348.677c-.015.078.146.173.359.211s.4,0,.414-.075-.146-.173-.36-.211-.4,0-.413.075" transform="translate(33.213 78.601)" fill="#263238"/>
        <g id="Group_314" data-name="Group 314" transform="translate(178.665 418.697)" opacity="0.3">
          <g id="Group_313" data-name="Group 313">
            <g id="Group_312" data-name="Group 312" clip-path="url(#clip-path-21)">
              <path id="Path_2854" data-name="Path 2854" d="M146.224,348.288l23.984-5.669-.186-.961-24.23,4.683Z" transform="translate(-145.791 -341.658)"/>
            </g>
          </g>
        </g>
        <path id="Path_2855" data-name="Path 2855" d="M115.54,173.344c0-.445,4.11-4.332,4.777-4.555s12.663-5.221,12.886-4.665,1.665,3.29-.778,4.589l-1.888.632,6.887.555s7.664,5.665,7.554,6.887-1.112,2-1.777,1.444,1.778,3.888,1.778,3.888,0,1.888-1,1.555a9.24,9.24,0,0,1-2.555-2.11s1.445,2.332,1,2.777-2.665.555-2.888,0-.555-1.555-.555-1.555l-1.333.11v1.821l-20.328.624Z" transform="translate(26.053 36.998)" fill="#aa6550"/>
        <path id="Path_2856" data-name="Path 2856" d="M52.42,125.863l6.207,7.348,24.83,43.453,48.419,4.788,1.064,14.012L77.168,200.73,46.034,144.385Z" transform="translate(10.38 28.38)" fill="#e0e0e0"/>
        <path id="Path_2857" data-name="Path 2857" d="M65.058,149.832l-4.8-18.131-.1-5.9L33.2,113.56,28.024,120l.626.328c-2.121,2.23-17.811,19.184-16.875,31.684.846,11.27,24.578,82.27,24.578,82.27l54.082-15.808Z" transform="translate(2.646 25.606)" fill="#ebebeb"/>
        <path id="Path_2858" data-name="Path 2858" d="M51.127,128.563l-1.517,7.425,3.955,7.433v5.5L81.9,215.091l8.382,2.821,1.419-5.675s-23.589-40.261-27.668-51.611-10.11-27.668-10.11-27.668Z" transform="translate(11.186 28.989)" fill="#e8505b"/>
        <path id="Path_2859" data-name="Path 2859" d="M15.748,160.145c0,.7,48.845,47.907,48.845,47.907l65.989-12.917-2.113-14.089-45.056,1.222a13.284,13.284,0,0,1-11.849-5.35c-9.664-12.553-30.616-39.768-31.158-40.49-.7-.94-24.658,23.718-24.658,23.718" transform="translate(3.551 30.756)" fill="#ebebeb"/>
        <path id="Path_2860" data-name="Path 2860" d="M128.348,181.5s.061.289.161.886c.1.623.245,1.511.435,2.675.377,2.4.931,5.93,1.651,10.509l.021.127-.129.025-52.677,10.18-4.338.832a19.692,19.692,0,0,1-4.551.4,18.355,18.355,0,0,1-12.756-5.766c-1.112-1.206-2.147-2.447-3.239-3.686l-6.593-7.577-28.2-32.443-.036-.042-.017-.045c-.064-.161-.131-.337-.2-.512a21.3,21.3,0,0,1-1.585-7.6,13.994,13.994,0,0,1,1.882-7.429,15.657,15.657,0,0,1,5.428-5.262,16.842,16.842,0,0,1,7.061-2.339,13.417,13.417,0,0,1,7.192,1.279,18.694,18.694,0,0,1,5.61,4.458,59,59,0,0,1,4.249,5.533l3.945,5.518c5.249,7.232,10.452,13.946,15.473,20.105l3.729,4.515A39.562,39.562,0,0,0,74.61,180a8.769,8.769,0,0,0,4.817,1.967,37.516,37.516,0,0,0,5.157.138l32.083-.489,8.684-.108c.972-.009,1.717-.013,2.246-.017.5,0,.75.01.75.01s-.276.022-.792.039l-2.283.069-8.729.222-31.963.725a37.576,37.576,0,0,1-5.212-.12,9.26,9.26,0,0,1-5.076-2.059,39.636,39.636,0,0,1-3.824-4.2l-3.748-4.51c-5.045-6.152-10.271-12.861-15.539-20.094l-3.96-5.518a58.908,58.908,0,0,0-4.212-5.472,18.088,18.088,0,0,0-5.429-4.31,12.8,12.8,0,0,0-6.864-1.212,16.145,16.145,0,0,0-12,7.3,13.361,13.361,0,0,0-1.792,7.1,20.7,20.7,0,0,0,1.54,7.374c.067.172.134.343.194.5l-.054-.086c9.8,11.289,19.265,22.187,28.185,32.462q3.342,3.853,6.581,7.586c1.083,1.234,2.138,2.5,3.218,3.675a17.788,17.788,0,0,0,12.347,5.61,19.181,19.181,0,0,0,4.43-.382l4.339-.821,52.728-9.918-.108.152c-.651-4.558-1.152-8.066-1.494-10.46-.163-1.18-.287-2.081-.374-2.713-.082-.612-.113-.937-.113-.937" transform="translate(3.673 30.299)" fill="#455a64"/>
        <path id="Path_2861" data-name="Path 2861" d="M57.06,124.516c.065.016-.187,1.208-.426,3.317-.284,2.1-.4,5.142-1.161,8.738l-.078.37-.335-.192L45.42,131.2c-5.558-3.225-10.57-6.176-14.183-8.339l-4.261-2.589a10.031,10.031,0,0,1-1.518-1.026,10.139,10.139,0,0,1,1.643.81l4.363,2.415c3.67,2.062,8.718,4.951,14.276,8.176l9.6,5.618-.413.176c.8-3.5,1-6.556,1.379-8.653.172-1.054.342-1.877.483-2.433a3.22,3.22,0,0,1,.271-.839" transform="translate(5.74 26.887)" fill="#455a64"/>
        <path id="Path_2862" data-name="Path 2862" d="M135.974,173.444,124.2,170.222l-9.776,4.888H108.87l-.89.364,1.582,10.543,1.4.2A13.676,13.676,0,0,0,115.645,188c3.11.667,7.665-1.332,7.665-1.332l6.221-3.444,4.445-1.265,3.331,1.931a12.863,12.863,0,0,1,.333,1.777c0,.445,1.222,1,1.888,1s.888-1.555.888-1.555l-.778-3.327,1.555,1.439h3.888v-2.444Z" transform="translate(24.348 38.383)" fill="#b78876"/>
        <path id="Path_2863" data-name="Path 2863" d="M118.791,235.961,68.044,326.306,95.164,344.7,140.013,265.1l-7.554-29.135Z" transform="translate(15.343 53.206)" fill="#263238"/>
        <path id="Path_2864" data-name="Path 2864" d="M32.017,214.979S26.193,239.524,42,244.515s98.045,7.593,98.045,7.593l30.565,126.237,26.164-3.718L174.206,239.337a22.9,22.9,0,0,0-18.524-18.582C131.3,216.4,87.117,208.393,86.515,207.491c-.832-1.249-4.161-8.321-4.161-8.321Z" transform="translate(6.983 44.91)" fill="#263238"/>
        <path id="Path_2865" data-name="Path 2865" d="M135.4,281.372a2.959,2.959,0,0,1-.263-.651c-.158-.431-.366-1.076-.6-1.915-.485-1.675-1.085-4.127-1.729-7.175-.63-3.075-1.371-6.7-2.191-10.71-.891-4-1.79-8.474-3.806-12.718-1.033-2.064-2.408-4.053-4.5-4.718a34.573,34.573,0,0,0-6.233-1.364c-4.061-.564-7.759-.828-10.859-1.022s-5.619-.288-7.358-.357c-.811-.034-1.473-.061-2-.082a2.885,2.885,0,0,1-.7-.069,2.917,2.917,0,0,1,.7-.06c.458-.021,1.135-.034,2.006-.038,1.741-.007,4.262.021,7.376.154s6.82.355,10.918.89a34.376,34.376,0,0,1,6.369,1.361,8.275,8.275,0,0,1,1.581.8,7.847,7.847,0,0,1,1.325,1.208,14.22,14.22,0,0,1,1.946,3.017c2.069,4.365,2.944,8.865,3.809,12.881.817,4.039,1.464,7.687,2.059,10.74s1.116,5.512,1.527,7.2.684,2.611.627,2.63" transform="translate(21.456 54.227)" fill="#455a64"/>
      </g>
    </g>
    <path id="Path_2866" data-name="Path 2866" d="M431.813,187.738l-326.6-1.172-.036,9.7,19.387.07-.678,188.874,6.847.025.678-188.874,269.863.968L400.6,386.2l6.847.025.678-188.874,23.653.085Z" transform="translate(23.717 42.068)" fill="#455a64"/>
    <path id="Path_2867" data-name="Path 2867" d="M280.179,143.8l18.116,52.94h82.032l-.605-2.727-33.17-1.026L331.27,143.775Z" transform="translate(63.176 32.419)" fill="#e0e0e0"/>
    <g id="Group_318" data-name="Group 318">
      <g id="Group_317" data-name="Group 317" clip-path="url(#clip-path)">
        <path id="Path_2868" data-name="Path 2868" d="M310.994,164.676c.542,2.169-.387,4.293-2.075,4.745s-3.5-.941-4.037-3.11.387-4.293,2.075-4.745,3.5.941,4.037,3.11" transform="translate(68.712 36.412)" fill="#fff"/>
        <path id="Path_2869" data-name="Path 2869" d="M232.738,142.592l-18.116,52.94H132.59l.605-2.727,33.17-1.026,15.281-49.215Z" transform="translate(29.897 32.146)" fill="#e0e0e0"/>
        <path id="Path_2870" data-name="Path 2870" d="M184.677,163.465c-.542,2.169.387,4.294,2.075,4.745s3.5-.941,4.037-3.11-.387-4.293-2.075-4.745-3.5.941-4.037,3.11" transform="translate(41.607 36.138)" fill="#fff"/>
        <path id="Path_2871" data-name="Path 2871" d="M253.363,172.515a10.042,10.042,0,1,1-10.042-10.042,10.041,10.041,0,0,1,10.042,10.042" transform="translate(52.601 36.635)" fill="#455a64"/>
        <rect id="Rectangle_235" data-name="Rectangle 235" width="65.589" height="23.974" transform="translate(263.128 205.188)" fill="#e0e0e0"/>
        <path id="Path_2872" data-name="Path 2872" d="M239.226,172.889c0,.176-4.79.319-10.7.319s-10.7-.142-10.7-.319,4.789-.319,10.7-.319,10.7.142,10.7.319" transform="translate(49.117 38.912)" fill="#263238"/>
        <path id="Path_2873" data-name="Path 2873" d="M239.226,175.7c0,.176-4.79.319-10.7.319s-10.7-.142-10.7-.319,4.789-.319,10.7-.319,10.7.142,10.7.319" transform="translate(49.117 39.545)" fill="#263238"/>
        <path id="Path_2874" data-name="Path 2874" d="M239.226,178.507c0,.176-4.79.319-10.7.319s-10.7-.142-10.7-.319,4.789-.319,10.7-.319,10.7.142,10.7.319" transform="translate(49.117 40.179)" fill="#263238"/>
        <path id="Path_2875" data-name="Path 2875" d="M239.226,181.315c0,.176-4.79.319-10.7.319s-10.7-.142-10.7-.319,4.789-.319,10.7-.319,10.7.142,10.7.319" transform="translate(49.117 40.812)" fill="#263238"/>
        <path id="Path_2876" data-name="Path 2876" d="M245.113,190.777c-.176,0-.319-5.156-.319-11.515s.142-11.516.319-11.516.319,5.156.319,11.516-.142,11.515-.319,11.515" transform="translate(55.197 37.824)" fill="#263238"/>
      </g>
    </g>
  </g>
</svg>
